<svg xmlns="http://www.w3.org/2000/svg" viewBox="0 0 600 300"><defs><style>.a{fill:#c6d8e2;}.b{fill:#3d4920;}.c{fill:#fff;}.d,.f{fill:none;}.d,.f,.g{stroke:#596e31;stroke-miterlimit:10;}.d{stroke-width:3.61px;}.e{fill:#596e31;}.f{stroke-width:4.2px;}.g,.h{fill:#689b57;}.g{stroke-width:2.77px;}</style></defs><title>404background</title><rect class="a" x="-9" y="-9" width="618" height="318"/><line class="b" x1="26.35" y1="241.4" x2="26.84" y2="306.73"/><polygon class="b" points="26.07 230.53 37.63 250.55 49.19 270.57 26.07 270.57 2.95 270.57 14.51 250.55 26.07 230.53"/><polygon class="b" points="26.35 245.67 37.91 265.69 49.47 285.72 26.35 285.72 3.23 285.72 14.79 265.69 26.35 245.67"/><polygon class="b" points="26.07 261.42 37.63 281.45 49.19 301.47 26.07 301.47 2.95 301.47 14.51 281.45 26.07 261.42"/><line class="b" x1="90.81" y1="208.88" x2="91.56" y2="308.86"/><polygon class="b" points="90.38 192.24 108.07 222.88 125.76 253.52 90.38 253.52 55 253.52 72.69 222.88 90.38 192.24"/><polygon class="b" points="90.81 215.41 108.5 246.05 126.19 276.69 90.81 276.69 55.43 276.69 73.12 246.05 90.81 215.41"/><polygon class="b" points="90.38 239.52 108.07 270.16 125.76 300.8 90.38 300.8 55 300.8 72.69 270.16 90.38 239.52"/><line class="b" x1="225.13" y1="208.88" x2="225.88" y2="308.86"/><polygon class="b" points="224.7 192.24 242.39 222.88 260.08 253.52 224.7 253.52 189.32 253.52 207.01 222.88 224.7 192.24"/><polygon class="b" points="225.13 215.41 242.82 246.05 260.51 276.69 225.13 276.69 189.75 276.69 207.44 246.05 225.13 215.41"/><polygon class="b" points="224.7 239.52 242.39 270.16 260.08 300.8 224.7 300.8 189.32 300.8 207.01 270.16 224.7 239.52"/><line class="b" x1="503.39" y1="192.35" x2="504.26" y2="307.41"/><polygon class="b" points="502.9 173.21 523.26 208.47 543.61 243.73 502.9 243.73 462.18 243.73 482.54 208.47 502.9 173.21"/><polygon class="b" points="503.39 199.87 523.75 235.13 544.11 270.39 503.39 270.39 462.67 270.39 483.03 235.13 503.39 199.87"/><polygon class="b" points="502.9 227.61 523.26 262.87 543.61 298.13 502.9 298.13 462.18 298.13 482.54 262.87 502.9 227.61"/><line class="b" x1="437.61" y1="194.8" x2="438.48" y2="309.85"/><polygon class="b" points="437.12 175.65 457.48 210.91 477.83 246.17 437.12 246.17 396.4 246.17 416.76 210.91 437.12 175.65"/><polygon class="b" points="437.61 202.32 457.97 237.58 478.32 272.84 437.61 272.84 396.89 272.84 417.25 237.58 437.61 202.32"/><polygon class="b" points="437.12 230.06 457.48 265.32 477.83 300.58 437.12 300.58 396.4 300.58 416.76 265.32 437.12 230.06"/><line class="b" x1="158.59" y1="191.57" x2="159.46" y2="306.62"/><polygon class="b" points="158.1 172.42 178.46 207.68 198.81 242.94 158.1 242.94 117.38 242.94 137.74 207.68 158.1 172.42"/><polygon class="b" points="158.59 199.09 178.95 234.35 199.31 269.61 158.59 269.61 117.87 269.61 138.23 234.35 158.59 199.09"/><polygon class="b" points="158.1 226.83 178.46 262.09 198.81 297.35 158.1 297.35 117.38 297.35 137.74 262.09 158.1 226.83"/><line class="b" x1="277.45" y1="189.62" x2="278.32" y2="304.68"/><polygon class="b" points="276.96 170.48 297.31 205.74 317.67 241 276.96 241 236.24 241 256.6 205.74 276.96 170.48"/><polygon class="b" points="277.45 197.14 297.81 232.4 318.16 267.66 277.45 267.66 236.73 267.66 257.09 232.4 277.45 197.14"/><polygon class="b" points="276.96 224.88 297.31 260.14 317.67 295.4 276.96 295.4 236.24 295.4 256.6 260.14 276.96 224.88"/><line class="b" x1="366.45" y1="194.99" x2="367.32" y2="310.04"/><polygon class="b" points="365.96 175.84 386.32 211.1 406.68 246.36 365.96 246.36 325.25 246.36 345.6 211.1 365.96 175.84"/><polygon class="b" points="366.45 202.51 386.81 237.77 407.17 273.03 366.45 273.03 325.74 273.03 346.09 237.77 366.45 202.51"/><polygon class="b" points="365.96 230.25 386.32 265.51 406.68 300.77 365.96 300.77 325.25 300.77 345.6 265.51 365.96 230.25"/><polygon class="b" points="26.38 193.03 44.07 223.67 61.76 254.31 26.38 254.31 -9 254.31 8.69 223.67 26.38 193.03"/><polygon class="b" points="26.81 216.2 44.5 246.84 62.19 277.48 26.81 277.48 -8.57 277.48 9.12 246.84 26.81 216.2"/><polygon class="b" points="26.38 240.31 44.07 270.95 61.76 301.59 26.38 301.59 -9 301.59 8.69 270.95 26.38 240.31"/><line class="b" x1="573.62" y1="208.09" x2="574.37" y2="308.06"/><polygon class="b" points="573.19 191.45 590.88 222.09 608.57 252.73 573.19 252.73 537.81 252.73 555.5 222.09 573.19 191.45"/><polygon class="b" points="573.62 214.62 591.31 245.26 609 275.9 573.62 275.9 538.24 275.9 555.93 245.26 573.62 214.62"/><polygon class="b" points="573.19 238.73 590.88 269.37 608.57 300.01 573.19 300.01 537.81 300.01 555.5 269.37 573.19 238.73"/><rect class="b" x="355.14" y="298.13" width="4.6" height="11.54"/><rect class="b" x="18.19" y="297.78" width="4.6" height="11.54"/><rect class="b" x="572.04" y="297.78" width="4.6" height="11.54"/><rect class="b" x="489.92" y="297.78" width="4.6" height="11.54"/><path class="c" d="M26.6,193l17.68,30.63c-.35-.57-7.8,2.8-8.46,3.06-4.27,1.71-8.28,3.64-13,2.66-4.95-1-9.29-3.84-13.93-5.72Z"/><path class="c" d="M90.38,192.24l17.68,30.63c-.35-.57-7.8,2.8-8.46,3.06-4.27,1.71-8.28,3.64-13,2.66-4.95-1-9.29-3.84-13.93-5.72Z"/><path class="c" d="M158.1,172.42l17.68,30.38c-.35-.56-7.8,2.78-8.46,3-4.27,1.7-8.28,3.61-13,2.64-4.95-1-9.29-3.81-13.93-5.67Z"/><path class="c" d="M224.7,192.39l17.68,30.38c-.35-.56-7.8,2.78-8.46,3-4.27,1.7-8.28,3.61-13,2.64-4.95-1-9.29-3.81-13.93-5.67Z"/><path class="c" d="M277,170.48l17.68,30.38c-.35-.56-7.8,2.78-8.46,3-4.27,1.7-8.28,3.61-13,2.64-4.95-1-9.29-3.81-13.93-5.67Z"/><path class="c" d="M437.12,175.65,454.81,206c-.35-.56-7.8,2.78-8.46,3-4.27,1.7-8.28,3.61-13,2.64-4.95-1-9.29-3.81-13.93-5.67Z"/><path class="c" d="M502.9,173.29l17.68,30.38c-.35-.56-7.8,2.78-8.46,3-4.27,1.7-8.28,3.61-13,2.64-4.95-1-9.29-3.81-13.93-5.67Z"/><path class="c" d="M573.2,191.45l17.68,30.38c-.35-.56-7.8,2.78-8.46,3-4.27,1.7-8.28,3.61-13,2.64-4.95-1-9.29-3.81-13.93-5.67Z"/><path class="c" d="M366,175.84l17.68,30.38c-.35-.56-7.8,2.78-8.46,3-4.27,1.7-8.28,3.61-13,2.64-4.95-1-9.29-3.81-13.93-5.67Z"/><line class="d" x1="54.11" y1="242.18" x2="54.6" y2="307.52"/><polygon class="e" points="53.83 231.31 65.39 251.34 76.95 271.36 53.83 271.36 30.71 271.36 42.27 251.34 53.83 231.31"/><polygon class="e" points="54.11 246.45 65.67 266.48 77.23 286.5 54.11 286.5 30.99 286.5 42.55 266.48 54.11 246.45"/><polygon class="e" points="53.83 262.21 65.39 282.23 76.95 302.25 53.83 302.25 30.71 302.25 42.27 282.23 53.83 262.21"/><line class="d" x1="123.04" y1="244.13" x2="123.53" y2="309.46"/><polygon class="e" points="122.76 233.26 134.32 253.28 145.88 273.3 122.76 273.3 99.64 273.3 111.2 253.28 122.76 233.26"/><polygon class="e" points="123.04 248.4 134.6 268.42 146.16 288.44 123.04 288.44 99.92 288.44 111.48 268.42 123.04 248.4"/><polygon class="e" points="122.76 264.15 134.32 284.17 145.88 304.2 122.76 304.2 99.64 304.2 111.2 284.17 122.76 264.15"/><line class="d" x1="189.46" y1="244.13" x2="189.95" y2="309.46"/><polygon class="e" points="189.18 233.26 200.74 253.28 212.3 273.3 189.18 273.3 166.06 273.3 177.62 253.28 189.18 233.26"/><polygon class="e" points="189.46 248.4 201.02 268.42 212.58 288.44 189.46 288.44 166.34 288.44 177.9 268.42 189.46 248.4"/><polygon class="e" points="189.18 264.15 200.74 284.17 212.3 304.2 189.18 304.2 166.06 304.2 177.62 284.17 189.18 264.15"/><line class="f" x1="322.5" y1="234.77" x2="323.07" y2="310.84"/><polygon class="e" points="322.18 222.11 335.64 245.43 349.1 268.74 322.18 268.74 295.26 268.74 308.72 245.43 322.18 222.11"/><polygon class="e" points="322.5 239.74 335.96 263.06 349.42 286.37 322.5 286.37 295.58 286.37 309.04 263.06 322.5 239.74"/><polygon class="e" points="322.18 258.08 335.64 281.4 349.1 304.71 322.18 304.71 295.26 304.71 308.72 281.4 322.18 258.08"/><line class="d" x1="264.49" y1="246.07" x2="264.98" y2="311.4"/><polygon class="e" points="264.21 235.2 275.77 255.22 287.33 275.24 264.21 275.24 241.09 275.24 252.65 255.22 264.21 235.2"/><polygon class="e" points="264.49 250.34 276.05 270.36 287.61 290.39 264.49 290.39 241.37 290.39 252.93 270.36 264.49 250.34"/><polygon class="e" points="264.21 266.09 275.77 286.12 287.33 306.14 264.21 306.14 241.09 306.14 252.65 286.12 264.21 266.09"/><line class="f" x1="386.98" y1="234.39" x2="387.56" y2="310.46"/><polygon class="e" points="386.66 221.73 400.12 245.04 413.58 268.36 386.66 268.36 359.74 268.36 373.2 245.04 386.66 221.73"/><polygon class="e" points="386.98 239.36 400.44 262.67 413.9 285.99 386.98 285.99 360.06 285.99 373.52 262.67 386.98 239.36"/><polygon class="e" points="386.66 257.7 400.12 281.01 413.58 304.33 386.66 304.33 359.74 304.33 373.2 281.01 386.66 257.7"/><line class="f" x1="471.09" y1="233.8" x2="471.67" y2="309.87"/><polygon class="e" points="470.77 221.15 484.23 244.46 497.69 267.77 470.77 267.77 443.85 267.77 457.31 244.46 470.77 221.15"/><polygon class="e" points="471.1 238.77 484.56 262.09 498.01 285.4 471.1 285.4 444.18 285.4 457.63 262.09 471.1 238.77"/><polygon class="e" points="470.77 257.12 484.23 280.43 497.69 303.74 470.77 303.74 443.85 303.74 457.31 280.43 470.77 257.12"/><line class="f" x1="539.1" y1="233.61" x2="539.67" y2="309.68"/><polygon class="e" points="538.78 220.95 552.24 244.27 565.7 267.58 538.78 267.58 511.86 267.58 525.32 244.27 538.78 220.95"/><polygon class="e" points="539.1 238.58 552.56 261.9 566.02 285.21 539.1 285.21 512.18 285.21 525.64 261.9 539.1 238.58"/><polygon class="e" points="538.78 256.93 552.24 280.24 565.7 303.55 538.78 303.55 511.86 303.55 525.32 280.24 538.78 256.93"/><path class="c" d="M538.94,221l13.46,23.31c-5.79,2.23-10.64,5.47-17.06,5-1.23-.09-11.78-1.67-12.25-.86l2.38-4.13Z"/><path class="c" d="M470.65,221l13.46,23.31c-5.79,2.23-10.64,5.47-17.06,5-1.23-.09-11.78-1.67-12.25-.86l2.38-4.13Z"/><path class="c" d="M386.36,221.83l13.46,23.31c-5.79,2.23-10.64,5.47-17.06,5-1.23-.09-11.78-1.67-12.25-.86l2.38-4.13Z"/><path class="c" d="M322.25,221.83l13.46,23.31c-5.79,2.23-10.64,5.47-17.06,5-1.23-.09-11.78-1.67-12.25-.86l2.38-4.13Z"/><path class="c" d="M264.42,235.7,277.88,259c-5.79,2.23-10.64,5.47-17.06,5-1.23-.09-11.78-1.67-12.25-.86L251,259Z"/><path class="c" d="M189.23,233.65,202.69,257c-5.79,2.23-10.64,5.47-17.06,5-1.23-.09-11.78-1.67-12.25-.86l2.38-4.13Z"/><path class="c" d="M122.94,233l13.46,23.31c-5.79,2.23-10.64,5.47-17.06,5-1.23-.09-11.78-1.67-12.25-.86l2.38-4.13Z"/><path class="c" d="M53.81,231.25l13.46,23.31c-5.79,2.23-10.64,5.47-17.06,5-1.23-.09-11.78-1.67-12.25-.86l2.38-4.13Z"/><line class="g" x1="504.59" y1="257.84" x2="504.96" y2="307.97"/><polygon class="h" points="504.37 249.5 513.24 264.87 522.11 280.23 504.37 280.23 486.63 280.23 495.5 264.87 504.37 249.5"/><polygon class="h" points="504.58 261.12 513.46 276.48 522.33 291.85 504.58 291.85 486.85 291.85 495.71 276.48 504.58 261.12"/><polygon class="h" points="504.37 273.21 513.24 288.57 522.11 303.93 504.37 303.93 486.63 303.93 495.5 288.57 504.37 273.21"/><line class="g" x1="429.43" y1="257.84" x2="429.81" y2="307.97"/><polygon class="h" points="429.22 249.5 438.09 264.87 446.96 280.23 429.22 280.23 411.48 280.23 420.35 264.87 429.22 249.5"/><polygon class="h" points="429.43 261.12 438.3 276.48 447.17 291.85 429.43 291.85 411.69 291.85 420.56 276.48 429.43 261.12"/><polygon class="h" points="429.22 273.21 438.09 288.57 446.96 303.93 429.22 303.93 411.48 303.93 420.35 288.57 429.22 273.21"/><line class="g" x1="294.12" y1="257.84" x2="294.5" y2="307.97"/><polygon class="h" points="293.91 249.5 302.78 264.87 311.65 280.23 293.91 280.23 276.17 280.23 285.04 264.87 293.91 249.5"/><polygon class="h" points="294.12 261.12 302.99 276.48 311.86 291.85 294.12 291.85 276.38 291.85 285.25 276.48 294.12 261.12"/><polygon class="h" points="293.91 273.21 302.78 288.57 311.65 303.93 293.91 303.93 276.17 303.93 285.04 288.57 293.91 273.21"/><line class="g" x1="225.23" y1="259.33" x2="225.61" y2="309.46"/><polygon class="h" points="225.02 250.99 233.89 266.36 242.76 281.72 225.02 281.72 207.28 281.72 216.15 266.36 225.02 250.99"/><polygon class="h" points="225.23 262.61 234.1 277.97 242.97 293.34 225.23 293.34 207.49 293.34 216.36 277.97 225.23 262.61"/><polygon class="h" points="225.02 274.7 233.89 290.06 242.76 305.43 225.02 305.43 207.28 305.43 216.15 290.06 225.02 274.7"/><line class="g" x1="155.28" y1="261.34" x2="155.66" y2="311.47"/><polygon class="h" points="155.07 252.99 163.94 268.36 172.81 283.72 155.07 283.72 137.32 283.72 146.2 268.36 155.07 252.99"/><polygon class="h" points="155.28 264.61 164.15 279.98 173.02 295.34 155.28 295.34 137.54 295.34 146.41 279.98 155.28 264.61"/><polygon class="h" points="155.07 276.7 163.94 292.06 172.81 307.43 155.07 307.43 137.32 307.43 146.2 292.06 155.07 276.7"/><line class="g" x1="83.62" y1="259.54" x2="84" y2="309.67"/><polygon class="h" points="83.41 251.19 92.28 266.56 101.15 281.92 83.41 281.92 65.67 281.92 74.54 266.56 83.41 251.19"/><polygon class="h" points="83.62 262.81 92.49 278.18 101.36 293.54 83.62 293.54 65.88 293.54 74.75 278.18 83.62 262.81"/><polygon class="h" points="83.41 274.9 92.28 290.26 101.15 305.63 83.41 305.63 65.67 305.63 74.54 290.26 83.41 274.9"/><path class="c" d="M83.41,251.19l8.87,15.36c-.08-.13-7.16,3.54-7.65,3.79-3.59,1.79-8.34.28-12.17-.19l2.08-3.6Z"/><path class="c" d="M154.95,253.05l8.87,15.36c-.08-.13-7.16,3.54-7.65,3.79-3.59,1.79-8.34.28-12.17-.19l2.08-3.6Z"/><path class="c" d="M225,251.12l8.87,15.36c-.08-.13-7.16,3.54-7.65,3.79-3.59,1.79-8.34.28-12.17-.19l2.08-3.6Z"/><path class="c" d="M294.06,249.81l8.87,15.36c-.08-.13-7.16,3.54-7.65,3.79-3.59,1.79-8.34.28-12.17-.19l2.08-3.6Z"/><path class="c" d="M429.31,249.81l8.87,15.36c-.08-.13-7.16,3.54-7.65,3.79-3.59,1.79-8.34.28-12.17-.19l2.08-3.6Z"/><path class="c" d="M504.43,249.81l8.87,15.36c-.08-.13-7.16,3.54-7.65,3.79-3.59,1.79-8.34.28-12.17-.19l2.08-3.6Z"/></svg>