<?xml version="1.0" encoding="utf-8"?>
<!-- Generator: Adobe Illustrator 21.0.0, SVG Export Plug-In . SVG Version: 6.00 Build 0)  -->
<svg version="1.1" xmlns="http://www.w3.org/2000/svg" xmlns:xlink="http://www.w3.org/1999/xlink" x="0px" y="0px" width="600px"
	 height="900px" viewBox="0 0 600 900" enable-background="new 0 0 600 900" xml:space="preserve">
<g id="Layer_2">
	<rect x="-9" y="-9" fill="#C6D8E2" width="618" height="970.2"/>
</g>
<g id="Layer_1">
	<line fill="#3D4920" x1="29.3" y1="834.2" x2="29.8" y2="899.5"/>
	<polygon fill="#3D4920" points="29,823.3 40.6,843.3 52.1,863.3 29,863.3 5.9,863.3 17.4,843.3 	"/>
	<polygon fill="#3D4920" points="29.3,838.4 40.8,858.4 52.4,878.5 29.3,878.5 6.2,878.5 17.7,858.4 	"/>
	<polygon fill="#3D4920" points="29,854.2 40.6,874.2 52.1,894.2 29,894.2 5.9,894.2 17.4,874.2 	"/>
	<line fill="#3D4920" x1="93.7" y1="801.6" x2="94.5" y2="901.6"/>
	<polygon fill="#3D4920" points="93.3,785 111,815.6 128.7,846.3 93.3,846.3 57.9,846.3 75.6,815.6 	"/>
	<polygon fill="#3D4920" points="93.7,808.2 111.4,838.8 129.1,869.5 93.7,869.5 58.4,869.5 76,838.8 	"/>
	<polygon fill="#3D4920" points="93.3,832.3 111,862.9 128.7,893.6 93.3,893.6 57.9,893.6 75.6,862.9 	"/>
	<line fill="#3D4920" x1="228.1" y1="801.6" x2="228.8" y2="901.6"/>
	<polygon fill="#3D4920" points="227.6,785 245.3,815.6 263,846.3 227.6,846.3 192.2,846.3 209.9,815.6 	"/>
	<polygon fill="#3D4920" points="228.1,808.2 245.7,838.8 263.4,869.5 228.1,869.5 192.7,869.5 210.4,838.8 	"/>
	<polygon fill="#3D4920" points="227.6,832.3 245.3,862.9 263,893.6 227.6,893.6 192.2,893.6 209.9,862.9 	"/>
	<line fill="#3D4920" x1="506.3" y1="785.1" x2="507.2" y2="900.2"/>
	<polygon fill="#3D4920" points="505.8,766 526.2,801.2 546.5,836.5 505.8,836.5 465.1,836.5 485.5,801.2 	"/>
	<polygon fill="#3D4920" points="506.3,792.6 526.7,827.9 547,863.1 506.3,863.1 465.6,863.1 486,827.9 	"/>
	<polygon fill="#3D4920" points="505.8,820.4 526.2,855.6 546.5,890.9 505.8,890.9 465.1,890.9 485.5,855.6 	"/>
	<line fill="#3D4920" x1="440.5" y1="787.6" x2="441.4" y2="902.6"/>
	<polygon fill="#3D4920" points="440,768.4 460.4,803.7 480.8,838.9 440,838.9 399.3,838.9 419.7,803.7 	"/>
	<polygon fill="#3D4920" points="440.5,795.1 460.9,830.3 481.3,865.6 440.5,865.6 399.8,865.6 420.2,830.3 	"/>
	<polygon fill="#3D4920" points="440,822.8 460.4,858.1 480.8,893.3 440,893.3 399.3,893.3 419.7,858.1 	"/>
	<line fill="#3D4920" x1="161.5" y1="784.3" x2="162.4" y2="899.4"/>
	<polygon fill="#3D4920" points="161,765.2 181.4,800.4 201.7,835.7 161,835.7 120.3,835.7 140.7,800.4 	"/>
	<polygon fill="#3D4920" points="161.5,791.8 181.9,827.1 202.2,862.4 161.5,862.4 120.8,862.4 141.2,827.1 	"/>
	<polygon fill="#3D4920" points="161,819.6 181.4,854.8 201.7,890.1 161,890.1 120.3,890.1 140.7,854.8 	"/>
	<line fill="#3D4920" x1="280.4" y1="782.4" x2="281.2" y2="897.4"/>
	<polygon fill="#3D4920" points="279.9,763.2 300.2,798.5 320.6,833.8 279.9,833.8 239.2,833.8 259.5,798.5 	"/>
	<polygon fill="#3D4920" points="280.4,789.9 300.7,825.2 321.1,860.4 280.4,860.4 239.7,860.4 260,825.2 	"/>
	<polygon fill="#3D4920" points="279.9,817.6 300.2,852.9 320.6,888.2 279.9,888.2 239.2,888.2 259.5,852.9 	"/>
	<line fill="#3D4920" x1="369.4" y1="787.7" x2="370.2" y2="902.8"/>
	<polygon fill="#3D4920" points="368.9,768.6 389.2,803.9 409.6,839.1 368.9,839.1 328.2,839.1 348.5,803.9 	"/>
	<polygon fill="#3D4920" points="369.4,795.3 389.7,830.5 410.1,865.8 369.4,865.8 328.7,865.8 349,830.5 	"/>
	<polygon fill="#3D4920" points="368.9,823 389.2,858.3 409.6,893.5 368.9,893.5 328.2,893.5 348.5,858.3 	"/>
	<polygon fill="#3D4920" points="29.3,785.8 47,816.4 64.7,847.1 29.3,847.1 -6.1,847.1 11.6,816.4 	"/>
	<polygon fill="#3D4920" points="29.7,809 47.4,839.6 65.1,870.2 29.7,870.2 -5.6,870.2 12,839.6 	"/>
	<polygon fill="#3D4920" points="29.3,833.1 47,863.7 64.7,894.3 29.3,894.3 -6.1,894.3 11.6,863.7 	"/>
	<line fill="#3D4920" x1="576.5" y1="800.8" x2="577.3" y2="900.8"/>
	<polygon fill="#3D4920" points="576.1,784.2 593.8,814.8 611.5,845.5 576.1,845.5 540.7,845.5 558.4,814.8 	"/>
	<polygon fill="#3D4920" points="576.5,807.4 594.2,838 611.9,868.7 576.5,868.7 541.2,868.7 558.9,838 	"/>
	<polygon fill="#3D4920" points="576.1,831.5 593.8,862.1 611.5,892.8 576.1,892.8 540.7,892.8 558.4,862.1 	"/>
	<rect x="358.1" y="890.9" fill="#3D4920" width="4.6" height="11.5"/>
	<rect x="21.1" y="890.5" fill="#3D4920" width="4.6" height="11.5"/>
	<rect x="575" y="890.5" fill="#3D4920" width="4.6" height="11.5"/>
	<rect x="492.8" y="890.5" fill="#3D4920" width="4.6" height="11.5"/>
	<path fill="#FFFFFF" d="M29.5,785.8c0,0,17.3,30,17.7,30.6c-0.3-0.6-7.8,2.8-8.5,3.1c-4.3,1.7-8.3,3.6-13,2.7
		c-4.9-1-9.3-3.8-13.9-5.7L29.5,785.8z"/>
	<path fill="#FFFFFF" d="M93.3,785c0,0,17.3,30,17.7,30.6c-0.3-0.6-7.8,2.8-8.5,3.1c-4.3,1.7-8.3,3.6-13,2.7
		c-4.9-1-9.3-3.8-13.9-5.7L93.3,785z"/>
	<path fill="#FFFFFF" d="M161,765.2c0,0,17.3,29.8,17.7,30.4c-0.3-0.6-7.8,2.8-8.5,3c-4.3,1.7-8.3,3.6-13,2.6
		c-4.9-1-9.3-3.8-13.9-5.7L161,765.2z"/>
	<path fill="#FFFFFF" d="M227.6,785.1c0,0,17.3,29.8,17.7,30.4c-0.3-0.6-7.8,2.8-8.5,3c-4.3,1.7-8.3,3.6-13,2.6
		c-4.9-1-9.3-3.8-13.9-5.7L227.6,785.1z"/>
	<path fill="#FFFFFF" d="M279.9,763.2c0,0,17.3,29.8,17.7,30.4c-0.3-0.6-7.8,2.8-8.5,3c-4.3,1.7-8.3,3.6-13,2.6
		c-4.9-1-9.3-3.8-13.9-5.7L279.9,763.2z"/>
	<path fill="#FFFFFF" d="M440,768.4c0,0,17.3,29.8,17.7,30.4c-0.3-0.6-7.8,2.8-8.5,3c-4.3,1.7-8.3,3.6-13,2.6
		c-4.9-1-9.3-3.8-13.9-5.7L440,768.4z"/>
	<path fill="#FFFFFF" d="M505.8,766c0,0,17.3,29.8,17.7,30.4c-0.3-0.6-7.8,2.8-8.5,3c-4.3,1.7-8.3,3.6-13,2.6
		c-4.9-1-9.3-3.8-13.9-5.7L505.8,766z"/>
	<path fill="#FFFFFF" d="M576.1,784.2c0,0,17.3,29.8,17.7,30.4c-0.3-0.6-7.8,2.8-8.5,3c-4.3,1.7-8.3,3.6-13,2.6
		c-4.9-1-9.3-3.8-13.9-5.7L576.1,784.2z"/>
	<path fill="#FFFFFF" d="M368.9,768.6c0,0,17.3,29.8,17.7,30.4c-0.3-0.6-7.8,2.8-8.5,3c-4.3,1.7-8.3,3.6-13,2.6
		c-4.9-1-9.3-3.8-13.9-5.7L368.9,768.6z"/>
	<line fill="none" stroke="#596E31" stroke-width="3.6097" stroke-miterlimit="10" x1="57" y1="834.9" x2="57.5" y2="900.3"/>
	<polygon fill="#596E31" points="56.8,824.1 68.3,844.1 79.9,864.1 56.8,864.1 33.6,864.1 45.2,844.1 	"/>
	<polygon fill="#596E31" points="57,839.2 68.6,859.2 80.2,879.3 57,879.3 33.9,879.3 45.5,859.2 	"/>
	<polygon fill="#596E31" points="56.8,855 68.3,875 79.9,895 56.8,895 33.6,895 45.2,875 	"/>
	<line fill="none" stroke="#596E31" stroke-width="3.6097" stroke-miterlimit="10" x1="126" y1="836.9" x2="126.5" y2="902.2"/>
	<polygon fill="#596E31" points="125.7,826 137.2,846 148.8,866.1 125.7,866.1 102.6,866.1 114.1,846 	"/>
	<polygon fill="#596E31" points="126,841.2 137.5,861.2 149.1,881.2 126,881.2 102.8,881.2 114.4,861.2 	"/>
	<polygon fill="#596E31" points="125.7,856.9 137.2,876.9 148.8,897 125.7,897 102.6,897 114.1,876.9 	"/>
	<line fill="none" stroke="#596E31" stroke-width="3.6097" stroke-miterlimit="10" x1="192.4" y1="836.9" x2="192.9" y2="902.2"/>
	<polygon fill="#596E31" points="192.1,826 203.7,846 215.2,866.1 192.1,866.1 169,866.1 180.5,846 	"/>
	<polygon fill="#596E31" points="192.4,841.2 203.9,861.2 215.5,881.2 192.4,881.2 169.3,881.2 180.8,861.2 	"/>
	<polygon fill="#596E31" points="192.1,856.9 203.7,876.9 215.2,897 192.1,897 169,897 180.5,876.9 	"/>
	<line fill="none" stroke="#596E31" stroke-width="4.203" stroke-miterlimit="10" x1="325.4" y1="827.5" x2="326" y2="903.6"/>
	<polygon fill="#596E31" points="325.1,814.9 338.6,838.2 352,861.5 325.1,861.5 298.2,861.5 311.6,838.2 	"/>
	<polygon fill="#596E31" points="325.4,832.5 338.9,855.8 352.3,879.1 325.4,879.1 298.5,879.1 312,855.8 	"/>
	<polygon fill="#596E31" points="325.1,850.8 338.6,874.2 352,897.5 325.1,897.5 298.2,897.5 311.6,874.2 	"/>
	<line fill="none" stroke="#596E31" stroke-width="3.6097" stroke-miterlimit="10" x1="267.4" y1="838.8" x2="267.9" y2="904.2"/>
	<polygon fill="#596E31" points="267.1,828 278.7,848 290.3,868 267.1,868 244,868 255.6,848 	"/>
	<polygon fill="#596E31" points="267.4,843.1 279,863.1 290.5,883.1 267.4,883.1 244.3,883.1 255.9,863.1 	"/>
	<polygon fill="#596E31" points="267.1,858.8 278.7,878.9 290.3,898.9 267.1,898.9 244,898.9 255.6,878.9 	"/>
	<line fill="none" stroke="#596E31" stroke-width="4.203" stroke-miterlimit="10" x1="389.9" y1="827.1" x2="390.5" y2="903.2"/>
	<polygon fill="#596E31" points="389.6,814.5 403,837.8 416.5,861.1 389.6,861.1 362.7,861.1 376.1,837.8 	"/>
	<polygon fill="#596E31" points="389.9,832.1 403.4,855.4 416.8,878.7 389.9,878.7 363,878.7 376.4,855.4 	"/>
	<polygon fill="#596E31" points="389.6,850.5 403,873.8 416.5,897.1 389.6,897.1 362.7,897.1 376.1,873.8 	"/>
	<line fill="none" stroke="#596E31" stroke-width="4.203" stroke-miterlimit="10" x1="474" y1="826.6" x2="474.6" y2="902.6"/>
	<polygon fill="#596E31" points="473.7,813.9 487.2,837.2 500.6,860.5 473.7,860.5 446.8,860.5 460.2,837.2 	"/>
	<polygon fill="#596E31" points="474,831.5 487.5,854.8 500.9,878.2 474,878.2 447.1,878.2 460.6,854.8 	"/>
	<polygon fill="#596E31" points="473.7,849.9 487.2,873.2 500.6,896.5 473.7,896.5 446.8,896.5 460.2,873.2 	"/>
	<line fill="none" stroke="#596E31" stroke-width="4.203" stroke-miterlimit="10" x1="542" y1="826.4" x2="542.6" y2="902.4"/>
	<polygon fill="#596E31" points="541.7,813.7 555.2,837 568.6,860.3 541.7,860.3 514.8,860.3 528.2,837 	"/>
	<polygon fill="#596E31" points="542,831.3 555.5,854.7 568.9,878 542,878 515.1,878 528.6,854.7 	"/>
	<polygon fill="#596E31" points="541.7,849.7 555.2,873 568.6,896.3 541.7,896.3 514.8,896.3 528.2,873 	"/>
	<path fill="#FFFFFF" d="M541.9,813.7c0,0,13.5,23.3,13.5,23.3c-5.8,2.2-10.6,5.5-17.1,5c-1.2-0.1-11.8-1.7-12.2-0.9
		c0,0,2.4-4.1,2.4-4.1L541.9,813.7z"/>
	<path fill="#FFFFFF" d="M473.6,813.7c0,0,13.5,23.3,13.5,23.3c-5.8,2.2-10.6,5.5-17.1,5c-1.2-0.1-11.8-1.7-12.2-0.9
		c0,0,2.4-4.1,2.4-4.1L473.6,813.7z"/>
	<path fill="#FFFFFF" d="M389.3,814.6c0,0,13.5,23.3,13.5,23.3c-5.8,2.2-10.6,5.5-17.1,5c-1.2-0.1-11.8-1.7-12.2-0.9
		c0,0,2.4-4.1,2.4-4.1L389.3,814.6z"/>
	<path fill="#FFFFFF" d="M325.2,814.6c0,0,13.5,23.3,13.5,23.3c-5.8,2.2-10.6,5.5-17.1,5c-1.2-0.1-11.8-1.7-12.2-0.9
		c0,0,2.4-4.1,2.4-4.1L325.2,814.6z"/>
	<path fill="#FFFFFF" d="M267.3,828.5c0,0,13.5,23.3,13.5,23.3c-5.8,2.2-10.6,5.5-17.1,5c-1.2-0.1-11.8-1.7-12.2-0.9
		c0,0,2.4-4.1,2.4-4.1L267.3,828.5z"/>
	<path fill="#FFFFFF" d="M192.2,826.4c0,0,13.5,23.3,13.5,23.3c-5.8,2.2-10.6,5.5-17.1,5c-1.2-0.1-11.8-1.7-12.2-0.9
		c0,0,2.4-4.1,2.4-4.1L192.2,826.4z"/>
	<path fill="#FFFFFF" d="M125.9,825.7c0,0,13.5,23.3,13.5,23.3c-5.8,2.2-10.6,5.5-17.1,5c-1.2-0.1-11.8-1.7-12.2-0.9
		c0,0,2.4-4.1,2.4-4.1L125.9,825.7z"/>
	<path fill="#FFFFFF" d="M56.7,824c0,0,13.5,23.3,13.5,23.3c-5.8,2.2-10.6,5.5-17.1,5c-1.2-0.1-11.8-1.7-12.2-0.9
		c0,0,2.4-4.1,2.4-4.1L56.7,824z"/>
	
		<line fill="#689B57" stroke="#596E31" stroke-width="2.7698" stroke-miterlimit="10" x1="507.5" y1="850.6" x2="507.9" y2="900.7"/>
	<polygon fill="#689B57" points="507.3,842.3 516.2,857.6 525,873 507.3,873 489.6,873 498.4,857.6 	"/>
	<polygon fill="#689B57" points="507.5,853.9 516.4,869.2 525.3,884.6 507.5,884.6 489.8,884.6 498.6,869.2 	"/>
	<polygon fill="#689B57" points="507.3,866 516.2,881.3 525,896.7 507.3,896.7 489.6,896.7 498.4,881.3 	"/>
	
		<line fill="#689B57" stroke="#596E31" stroke-width="2.7698" stroke-miterlimit="10" x1="432.4" y1="850.6" x2="432.7" y2="900.7"/>
	<polygon fill="#689B57" points="432.1,842.3 441,857.6 449.9,873 432.1,873 414.4,873 423.3,857.6 	"/>
	<polygon fill="#689B57" points="432.4,853.9 441.2,869.2 450.1,884.6 432.4,884.6 414.6,884.6 423.5,869.2 	"/>
	<polygon fill="#689B57" points="432.1,866 441,881.3 449.9,896.7 432.1,896.7 414.4,896.7 423.3,881.3 	"/>
	<line fill="#689B57" stroke="#596E31" stroke-width="2.7698" stroke-miterlimit="10" x1="297" y1="850.6" x2="297.4" y2="900.7"/>
	<polygon fill="#689B57" points="296.8,842.3 305.7,857.6 314.6,873 296.8,873 279.1,873 288,857.6 	"/>
	<polygon fill="#689B57" points="297,853.9 305.9,869.2 314.8,884.6 297,884.6 279.3,884.6 288.2,869.2 	"/>
	<polygon fill="#689B57" points="296.8,866 305.7,881.3 314.6,896.7 296.8,896.7 279.1,896.7 288,881.3 	"/>
	
		<line fill="#689B57" stroke="#596E31" stroke-width="2.7698" stroke-miterlimit="10" x1="228.2" y1="852.1" x2="228.5" y2="902.2"/>
	<polygon fill="#689B57" points="227.9,843.7 236.8,859.1 245.7,874.5 227.9,874.5 210.2,874.5 219.1,859.1 	"/>
	<polygon fill="#689B57" points="228.2,855.4 237,870.7 245.9,886.1 228.2,886.1 210.4,886.1 219.3,870.7 	"/>
	<polygon fill="#689B57" points="227.9,867.5 236.8,882.8 245.7,898.2 227.9,898.2 210.2,898.2 219.1,882.8 	"/>
	
		<line fill="#689B57" stroke="#596E31" stroke-width="2.7698" stroke-miterlimit="10" x1="158.2" y1="854.1" x2="158.6" y2="904.2"/>
	<polygon fill="#689B57" points="158,845.7 166.9,861.1 175.7,876.5 158,876.5 140.3,876.5 149.1,861.1 	"/>
	<polygon fill="#689B57" points="158.2,857.4 167.1,872.7 175.9,888.1 158.2,888.1 140.5,888.1 149.3,872.7 	"/>
	<polygon fill="#689B57" points="158,869.5 166.9,884.8 175.7,900.2 158,900.2 140.3,900.2 149.1,884.8 	"/>
	<line fill="#689B57" stroke="#596E31" stroke-width="2.7698" stroke-miterlimit="10" x1="86.6" y1="852.3" x2="86.9" y2="902.4"/>
	<polygon fill="#689B57" points="86.3,843.9 95.2,859.3 104.1,874.7 86.3,874.7 68.6,874.7 77.5,859.3 	"/>
	<polygon fill="#689B57" points="86.6,855.6 95.4,870.9 104.3,886.3 86.6,886.3 68.8,886.3 77.7,870.9 	"/>
	<polygon fill="#689B57" points="86.3,867.7 95.2,883 104.1,898.4 86.3,898.4 68.6,898.4 77.5,883 	"/>
	<path fill="#FFFFFF" d="M86.3,843.9c0,0,8.8,15.3,8.9,15.4c-0.1-0.1-7.2,3.5-7.6,3.8c-3.6,1.8-8.3,0.3-12.2-0.2l2.1-3.6L86.3,843.9
		z"/>
	<path fill="#FFFFFF" d="M157.9,845.8c0,0,8.8,15.3,8.9,15.4c-0.1-0.1-7.2,3.5-7.6,3.8c-3.6,1.8-8.3,0.3-12.2-0.2l2.1-3.6
		L157.9,845.8z"/>
	<path fill="#FFFFFF" d="M227.9,843.9c0,0,8.8,15.3,8.9,15.4c-0.1-0.1-7.2,3.5-7.6,3.8c-3.6,1.8-8.3,0.3-12.2-0.2l2.1-3.6
		L227.9,843.9z"/>
	<path fill="#FFFFFF" d="M297,842.6c0,0,8.8,15.3,8.9,15.4c-0.1-0.1-7.2,3.5-7.6,3.8c-3.6,1.8-8.3,0.3-12.2-0.2l2.1-3.6L297,842.6z"
		/>
	<path fill="#FFFFFF" d="M432.2,842.6c0,0,8.8,15.3,8.9,15.4c-0.1-0.1-7.2,3.5-7.6,3.8c-3.6,1.8-8.3,0.3-12.2-0.2l2.1-3.6
		L432.2,842.6z"/>
	<path fill="#FFFFFF" d="M507.4,842.6c0,0,8.8,15.3,8.9,15.4c-0.1-0.1-7.2,3.5-7.6,3.8c-3.6,1.8-8.3,0.3-12.2-0.2l2.1-3.6
		L507.4,842.6z"/>
</g>
</svg>
