<?xml version="1.0" encoding="utf-8"?>
<!-- Generator: Adobe Illustrator 21.0.1, SVG Export Plug-In . SVG Version: 6.00 Build 0)  -->
<svg version="1.1" id="Layer_1" xmlns="http://www.w3.org/2000/svg" xmlns:xlink="http://www.w3.org/1999/xlink" x="0px" y="0px"
	 width="200px" height="200px" viewBox="0 0 200 200" enable-background="new 0 0 200 200" xml:space="preserve">
<path fill="#FFC821" d="M172.1,108.8L107,172.7c-4.3,4.2-11.2,4.1-15.4-0.1l-63.9-65.1c-4.2-4.3-4.1-11.2,0.1-15.4L93,28.2
	c4.3-4.2,11.2-4.1,15.4,0.1l63.9,65.1C176.4,97.7,176.4,104.6,172.1,108.8z"/>
<rect x="92.2" y="152" fill="#010101" width="1.7" height="4"/>
<rect x="103.8" y="151.9" fill="#010101" width="1.7" height="4"/>
<polygon fill="#010101" points="91.7,141.4 91.7,133.5 91.7,121.1 105.9,121.1 106.3,142.3 91.7,143 "/>
<path fill="#010101" d="M104.8,118.2v17.5c3.4-1.5,5.8-4.8,5.8-8.8C110.5,123.1,108.2,119.7,104.8,118.2z"/>
<path fill="#010101" d="M93.3,118.1v17.5c-3.4-1.5-5.8-4.8-5.8-8.8C87.5,123,89.9,119.6,93.3,118.1z"/>
<path fill="none" stroke="#010101" stroke-width="0.3655" stroke-miterlimit="10" d="M112.2,111.8l4-13.1c0,0,4.4-2.1,10.9,0.5"/>
<path fill="none" stroke="#010101" stroke-width="0.3655" stroke-miterlimit="10" d="M86.7,111l-4-13.1c0,0-4.4-2.1-10.9,0.5"/>
<path fill="#010101" d="M58.5,94.7c0,0,0.2,6.9,5.2,6.9c2.3,0,5-0.4,6.8-1.8c2.2-1.7,1.6-4.4,1.6-6.8L58.5,94.7"/>
<path fill="#4E4B46" d="M108.5,116.4c0,5-4.1,9.1-9.1,9.1c-5,0-9.1-4.1-9.1-9.1c0-3.1,1.6-5.9,4-7.5c1.4-1,3.2-1.5,5.1-1.5
	C104.5,107.3,108.5,111.4,108.5,116.4z"/>
<circle fill="#010101" cx="99.5" cy="116.4" r="7.3"/>
<path fill="#4E4B46" d="M94,102.9h11.4c0,0,1,1.6,0,2.2c0,0-0.6,1.7-0.6,4l-10.4-0.2l-0.4-4.5C94,104.4,93.2,103.4,94,102.9z"/>
<rect x="108.9" y="111.7" transform="matrix(0.9719 0.2353 -0.2353 0.9719 30.3471 -22.8882)" fill="#010101" width="4.3" height="8.1"/>
<rect x="85.9" y="110.4" transform="matrix(-0.9719 0.2353 -0.2353 -0.9719 200.5284 204.8681)" fill="#010101" width="4.3" height="8.1"/>
<rect x="112.8" y="116.4" transform="matrix(0.9719 0.2353 -0.2353 0.9719 31.0701 -24.8113)" fill="#010101" width="13.4" height="2.7"/>
<rect x="73.1" y="115.1" transform="matrix(-0.9719 0.2353 -0.2353 -0.9719 184.6728 210.7701)" fill="#010101" width="13.4" height="2.7"/>
<circle fill="#010101" cx="72.6" cy="118.1" r="1.6"/>
<circle fill="#010101" cx="127.1" cy="119.7" r="1.6"/>
<path fill="#010101" d="M126.7,93.8l13.6,1.7c0,0-0.2,6.9-5.2,6.9c-2.3,0-5-0.4-6.8-1.8C126.1,98.9,126.7,96.2,126.7,93.8z"/>
<path fill="#010101" d="M95.1,137.4L95.1,137.4c0,0.2,0,0.5,0,0.7V137.4z"/>
<rect x="86.4" y="155.6" fill="#010101" width="8" height="2.2"/>
<rect x="103.8" y="155.6" fill="#010101" width="8" height="2.2"/>
<path fill="#010101" d="M103.2,139.8v14.1c2.7-1.2,4.6-3.9,4.6-7C107.8,143.7,105.9,141,103.2,139.8z"/>
<path fill="#010101" d="M94.1,139.8v14.1c-2.7-1.2-4.6-3.9-4.6-7C89.4,143.7,91.3,141,94.1,139.8z"/>
<path fill="#4E4B46" d="M103.9,138.7V171c0,2.8-2.2,5-5,5c-2.8,0-5-2.2-5-5v-32.3c0-0.2,0-0.5,0.1-0.7c0.4-2.4,2.4-4.3,4.9-4.3
	c2.5,0,4.6,1.9,4.9,4.3C103.8,138.3,103.9,138.5,103.9,138.7z"/>
<path fill="none" stroke="#010101" stroke-width="0.1218" stroke-miterlimit="10" d="M113.9,113.3c0,0,3.8-1.2,7.8,1.1"/>
<circle fill="#010101" cx="121.9" cy="114.4" r="0.8"/>
<path fill="none" stroke="#010101" stroke-width="0.1218" stroke-miterlimit="10" d="M85.5,112.2c0,0-3.8-1.2-7.8,1.1"/>
<circle fill="#010101" cx="77.5" cy="113.3" r="0.8"/>
<g>
	<g>
		<path fill="#010101" d="M69.8,53.8H72l2.1,8.6l4.3-8.6h2l0.2,12.4h-2.2l-0.1-7.4l-3.7,7.4h-1.8l-1.9-7.8l-2,7.8h-2.2L69.8,53.8z"
			/>
		<path fill="#010101" d="M90.2,53.5c1.7,0,3.1,0.5,4.2,1.6c1.1,1.1,1.7,2.5,1.7,4.2c0,1.3-0.3,2.5-1,3.7c-0.7,1.1-1.5,2-2.6,2.6
			c-1.1,0.6-2.3,0.9-3.7,0.9c-1.8,0-3.2-0.5-4.2-1.6c-1.1-1-1.6-2.4-1.6-4.1c0-1.9,0.6-3.6,1.9-5C86.2,54.3,88,53.5,90.2,53.5z
			 M90.1,55.7c-0.9,0-1.7,0.2-2.4,0.6c-0.7,0.4-1.3,1-1.8,1.9c-0.4,0.8-0.7,1.6-0.7,2.5c0,1,0.3,1.9,0.9,2.6
			c0.6,0.7,1.5,1.1,2.7,1.1c1.4,0,2.5-0.5,3.5-1.4c0.9-1,1.4-2.1,1.4-3.5c0-1.1-0.3-2-1-2.7C92.1,56.1,91.2,55.7,90.1,55.7z"/>
		<path fill="#010101" d="M97.4,53.8h7.6l-0.3,2.2h-2.6l-1.4,10.2h-2.3L99.8,56h-2.7L97.4,53.8z"/>
		<path fill="#010101" d="M111.9,53.5c1.7,0,3.1,0.5,4.2,1.6c1.1,1.1,1.7,2.5,1.7,4.2c0,1.3-0.3,2.5-1,3.7c-0.7,1.1-1.5,2-2.6,2.6
			c-1.1,0.6-2.3,0.9-3.7,0.9c-1.8,0-3.2-0.5-4.2-1.6c-1.1-1-1.6-2.4-1.6-4.1c0-1.9,0.6-3.6,1.9-5C108,54.3,109.8,53.5,111.9,53.5z
			 M111.9,55.7c-0.9,0-1.7,0.2-2.4,0.6c-0.7,0.4-1.3,1-1.8,1.9c-0.5,0.8-0.7,1.6-0.7,2.5c0,1,0.3,1.9,0.9,2.6
			c0.6,0.7,1.5,1.1,2.7,1.1c1.4,0,2.5-0.5,3.5-1.4c0.9-1,1.4-2.1,1.4-3.5c0-1.1-0.3-2-1-2.7C113.8,56.1,112.9,55.7,111.9,55.7z"/>
		<path fill="#010101" d="M120.9,53.8h2.2c1.3,0,2.3,0.1,2.8,0.3c0.7,0.3,1.2,0.7,1.5,1.2c0.3,0.5,0.5,1.1,0.5,1.8
			c0,0.9-0.3,1.6-0.8,2.2c-0.5,0.6-1.3,1-2.3,1.3l2.7,5.6h-2.4l-2.6-5.4h-0.2l-0.7,5.4h-2.3L120.9,53.8z M122.5,58.8
			c1.3,0,2.1-0.1,2.5-0.4c0.4-0.3,0.6-0.6,0.6-1.2c0-0.3-0.1-0.5-0.2-0.7c-0.2-0.2-0.4-0.3-0.7-0.4c-0.3-0.1-0.9-0.1-1.8-0.1
			L122.5,58.8z"/>
		<path fill="#010101" d="M89.1,76.3l-1.7,1.5c-0.7-0.9-1.3-1.3-1.9-1.3c-0.3,0-0.5,0.1-0.7,0.3c-0.2,0.2-0.3,0.4-0.3,0.6
			c0,0.2,0.1,0.5,0.3,0.8c0.2,0.3,0.7,0.9,1.6,1.9c0.5,0.5,0.8,0.9,1,1.1c0.4,0.5,0.6,1,0.8,1.4c0.2,0.4,0.2,0.9,0.2,1.3
			c0,1-0.4,1.8-1.1,2.5c-0.7,0.7-1.6,1-2.7,1c-1.7,0-3.1-0.8-4.1-2.4l1.8-1.4c0.7,1.1,1.5,1.6,2.3,1.6c0.4,0,0.7-0.1,1-0.4
			c0.3-0.3,0.4-0.6,0.4-0.9c0-0.3-0.1-0.6-0.2-0.9c-0.2-0.3-0.6-0.9-1.4-1.7c-0.8-0.9-1.4-1.5-1.6-2c-0.3-0.6-0.5-1.2-0.5-1.8
			c0-0.8,0.2-1.5,0.8-2.1c0.6-0.8,1.5-1.1,2.5-1.1C86.8,74.2,88.1,74.9,89.1,76.3z"/>
		<path fill="#010101" d="M96,74.5h2l3.1,12.4h-2.3l-0.7-2.6h-4.9l-1.4,2.6h-2.5L96,74.5z M97.5,82.1l-1-4.1l-2.2,4.1H97.5z"/>
		<path fill="#010101" d="M104.4,74.5h6l-0.3,2.2h-3.7l-0.4,2.6h3.7l-0.3,2.2h-3.7l-0.8,5.5h-2.3L104.4,74.5z"/>
		<path fill="#010101" d="M112.7,74.5h6.7l-0.3,2.2h-4.3l-0.4,2.6h4.3l-0.3,2.2h-4.4l-0.5,3.3h4.4l-0.3,2.2H111L112.7,74.5z"/>
	</g>
</g>
</svg>
