<?xml version="1.0" encoding="utf-8"?>
<!-- Generator: Adobe Illustrator 21.0.0, SVG Export Plug-In . SVG Version: 6.00 Build 0)  -->
<svg version="1.1" xmlns="http://www.w3.org/2000/svg" xmlns:xlink="http://www.w3.org/1999/xlink" x="0px" y="0px" width="600px"
	 height="900px" viewBox="0 0 600 900" enable-background="new 0 0 600 900" xml:space="preserve">
<pattern  x="-638" width="66" height="58" patternUnits="userSpaceOnUse" id="New_Pattern_2" viewBox="64.9 -58.3 66 58" overflow="visible">
	<g>
		<rect x="64.9" y="-58.3" fill="none" width="66" height="58"/>
		<g>
			<rect x="66" y="-58" fill="#C6D8E2" width="66" height="58"/>
			<g>
				<polygon fill="#E31E26" points="75,-13.7 75.2,-10 75.4,-6.4 72.1,-8 68.8,-9.7 71.9,-11.7 				"/>
				<ellipse transform="matrix(0.8929 -0.4502 0.4502 0.8929 11.4309 30.0062)" fill="#FFFFFF" cx="68.8" cy="-9" rx="1" ry="1"/>
				<ellipse transform="matrix(0.8929 -0.4502 0.4502 0.8929 11.3731 30.249)" fill="#FFFFFF" cx="69.3" cy="-8.8" rx="1" ry="1"/>
				<ellipse transform="matrix(0.8929 -0.4502 0.4502 0.8929 11.3247 30.4527)" fill="#FFFFFF" cx="69.7" cy="-8.6" rx="1" ry="1"/>
				<ellipse transform="matrix(0.8929 -0.4502 0.4502 0.8929 11.267 30.6955)" fill="#FFFFFF" cx="70.2" cy="-8.3" rx="1" ry="1"/>
				<ellipse transform="matrix(0.8929 -0.4502 0.4502 0.8929 11.2185 30.8992)" fill="#FFFFFF" cx="70.6" cy="-8.1" rx="1" ry="1"/>
				<ellipse transform="matrix(0.8929 -0.4502 0.4502 0.8929 11.1608 31.142)" fill="#FFFFFF" cx="71.1" cy="-7.9" rx="1" ry="1"/>
				<ellipse transform="matrix(0.8929 -0.4502 0.4502 0.8929 11.0915 31.4333)" fill="#FFFFFF" cx="71.6" cy="-7.6" rx="1" ry="1"/>
				<ellipse transform="matrix(0.8929 -0.4502 0.4502 0.8929 11.0546 31.5885)" fill="#FFFFFF" cx="71.9" cy="-7.4" rx="1" ry="1"/>
				<ellipse transform="matrix(0.8929 -0.4502 0.4502 0.8929 10.9853 31.8798)" fill="#FFFFFF" cx="72.5" cy="-7.2" rx="1" ry="1"/>
				<ellipse transform="matrix(0.8929 -0.4502 0.4502 0.8929 10.926 32.1293)" fill="#FFFFFF" cx="73" cy="-6.9" rx="1" ry="1"/>
				<ellipse transform="matrix(0.8929 -0.4502 0.4502 0.8929 10.8791 32.3263)" fill="#FFFFFF" cx="73.4" cy="-6.7" rx="1" ry="1"/>
				<ellipse transform="matrix(0.8929 -0.4502 0.4502 0.8929 10.8198 32.5758)" fill="#FFFFFF" cx="73.9" cy="-6.5" rx="1" ry="1"/>
				<ellipse transform="matrix(0.8929 -0.4502 0.4502 0.8929 10.7534 32.8547)" fill="#FFFFFF" cx="74.5" cy="-6.2" rx="1" ry="1"/>
				<ellipse transform="matrix(0.8929 -0.4502 0.4502 0.8929 10.7037 33.0641)" fill="#FFFFFF" cx="74.9" cy="-6" rx="1" ry="1"/>
				
					<ellipse transform="matrix(0.8929 -0.4502 0.4502 0.8929 14.1792 32.0757)" fill="#FFFFFF" cx="74.5" cy="-13.8" rx="0.5" ry="0.5"/>
				
					<ellipse transform="matrix(0.8929 -0.4502 0.4502 0.8929 14.2457 32.2763)" fill="#FFFFFF" cx="75" cy="-13.8" rx="0.5" ry="0.5"/>
				
					<ellipse transform="matrix(0.8929 -0.4502 0.4502 0.8929 14.0577 32.4881)" fill="#FFFFFF" cx="75.3" cy="-13.3" rx="0.5" ry="0.5"/>
				
					<ellipse transform="matrix(0.8929 -0.4502 0.4502 0.8929 13.8692 32.3007)" fill="#FFFFFF" cx="74.8" cy="-13" rx="0.5" ry="0.5"/>
				
					<ellipse transform="matrix(0.8929 -0.4502 0.4502 0.8929 13.927 32.0579)" fill="#FFFFFF" cx="74.4" cy="-13.3" rx="0.5" ry="0.5"/>
			</g>
			<g>
				<polygon fill="#E31E26" points="82.8,-23.7 83.7,-20.2 84.6,-16.7 81.1,-17.6 77.5,-18.6 80.2,-21.2 				"/>
				<ellipse transform="matrix(0.9647 -0.2632 0.2632 0.9647 7.4664 19.8012)" fill="#FFFFFF" cx="77.6" cy="-18" rx="1" ry="1"/>
				<ellipse transform="matrix(0.9647 -0.2632 0.2632 0.9647 7.4473 19.9431)" fill="#FFFFFF" cx="78.1" cy="-17.8" rx="1" ry="1"/>
				<ellipse transform="matrix(0.9647 -0.2632 0.2632 0.9647 7.4314 20.0623)" fill="#FFFFFF" cx="78.6" cy="-17.7" rx="1" ry="1"/>
				<ellipse transform="matrix(0.9647 -0.2632 0.2632 0.9647 7.4124 20.2042)" fill="#FFFFFF" cx="79.1" cy="-17.6" rx="1" ry="1"/>
				<ellipse transform="matrix(0.9647 -0.2632 0.2632 0.9647 7.3964 20.3234)" fill="#FFFFFF" cx="79.5" cy="-17.4" rx="1" ry="1"/>
				<ellipse transform="matrix(0.9647 -0.2632 0.2632 0.9647 7.3774 20.4653)" fill="#FFFFFF" cx="80.1" cy="-17.3" rx="1" ry="1"/>
				<ellipse transform="matrix(0.9647 -0.2632 0.2632 0.9647 7.3546 20.6356)" fill="#FFFFFF" cx="80.7" cy="-17.1" rx="1" ry="1"/>
				<ellipse transform="matrix(0.9647 -0.2632 0.2632 0.9647 7.3424 20.7264)" fill="#FFFFFF" cx="81" cy="-17" rx="1" ry="1"/>
				<ellipse transform="matrix(0.9647 -0.2632 0.2632 0.9647 7.3196 20.8967)" fill="#FFFFFF" cx="81.6" cy="-16.9" rx="1" ry="1"/>
				<ellipse transform="matrix(0.9647 -0.2632 0.2632 0.9647 7.3 21.0426)" fill="#FFFFFF" cx="82.2" cy="-16.7" rx="1" ry="1"/>
				<ellipse transform="matrix(0.9647 -0.2632 0.2632 0.9647 7.2846 21.1578)" fill="#FFFFFF" cx="82.6" cy="-16.6" rx="1" ry="1"/>
				<ellipse transform="matrix(0.9647 -0.2632 0.2632 0.9647 7.265 21.3037)" fill="#FFFFFF" cx="83.1" cy="-16.5" rx="1" ry="1"/>
				<ellipse transform="matrix(0.9647 -0.2632 0.2632 0.9647 7.2432 21.4668)" fill="#FFFFFF" cx="83.7" cy="-16.3" rx="1" ry="1"/>
				<ellipse transform="matrix(0.9647 -0.2632 0.2632 0.9647 7.2268 21.5892)" fill="#FFFFFF" cx="84.2" cy="-16.2" rx="1" ry="1"/>
				
					<ellipse transform="matrix(0.9647 -0.2632 0.2632 0.9647 9.1548 20.8251)" fill="#FFFFFF" cx="82.3" cy="-23.8" rx="0.5" ry="0.5"/>
				
					<ellipse transform="matrix(0.9647 -0.2632 0.2632 0.9647 9.2043 20.9358)" fill="#FFFFFF" cx="82.7" cy="-23.9" rx="0.5" ry="0.5"/>
				
					<ellipse transform="matrix(0.9647 -0.2632 0.2632 0.9647 9.1091 21.0675)" fill="#FFFFFF" cx="83.2" cy="-23.5" rx="0.5" ry="0.5"/>
				
					<ellipse transform="matrix(0.9647 -0.2632 0.2632 0.9647 8.9907 20.9714)" fill="#FFFFFF" cx="82.8" cy="-23.1" rx="0.5" ry="0.5"/>
				
					<ellipse transform="matrix(0.9647 -0.2632 0.2632 0.9647 9.0097 20.8294)" fill="#FFFFFF" cx="82.2" cy="-23.2" rx="0.5" ry="0.5"/>
			</g>
			<g>
				<polygon fill="#E31E26" points="83.4,-11.4 86.3,-9.1 89.2,-6.8 85.7,-5.5 82.3,-4.1 82.9,-7.8 				"/>
				<ellipse transform="matrix(0.3622 -0.9321 0.9321 0.3622 56.2096 74.7911)" fill="#FFFFFF" cx="82.8" cy="-3.7" rx="1" ry="1"/>
				<ellipse transform="matrix(0.3622 -0.9321 0.9321 0.3622 56.7122 75.135)" fill="#FFFFFF" cx="83.3" cy="-3.9" rx="1" ry="1"/>
				<ellipse transform="matrix(0.3622 -0.9321 0.9321 0.3622 57.1341 75.4237)" fill="#FFFFFF" cx="83.7" cy="-4" rx="1" ry="1"/>
				<ellipse transform="matrix(0.3622 -0.9321 0.9321 0.3622 57.6367 75.7676)" fill="#FFFFFF" cx="84.2" cy="-4.2" rx="1" ry="1"/>
				<ellipse transform="matrix(0.3622 -0.9321 0.9321 0.3622 58.0586 76.0563)" fill="#FFFFFF" cx="84.6" cy="-4.4" rx="1" ry="1"/>
				<ellipse transform="matrix(0.3622 -0.9321 0.9321 0.3622 58.5612 76.4002)" fill="#FFFFFF" cx="85.1" cy="-4.6" rx="1" ry="1"/>
				<ellipse transform="matrix(0.3622 -0.9321 0.9321 0.3622 59.1643 76.8129)" fill="#FFFFFF" cx="85.7" cy="-4.8" rx="1" ry="1"/>
				<ellipse transform="matrix(0.3622 -0.9321 0.9321 0.3622 59.4857 77.0328)" fill="#FFFFFF" cx="86" cy="-5" rx="1" ry="1"/>
				<ellipse transform="matrix(0.3622 -0.9321 0.9321 0.3622 60.0888 77.4455)" fill="#FFFFFF" cx="86.6" cy="-5.2" rx="1" ry="1"/>
				<ellipse transform="matrix(0.3622 -0.9321 0.9321 0.3622 60.6054 77.799)" fill="#FFFFFF" cx="87.2" cy="-5.4" rx="1" ry="1"/>
				<ellipse transform="matrix(0.3622 -0.9321 0.9321 0.3622 61.0133 78.0781)" fill="#FFFFFF" cx="87.6" cy="-5.5" rx="1" ry="1"/>
				<ellipse transform="matrix(0.3622 -0.9321 0.9321 0.3622 61.5299 78.4316)" fill="#FFFFFF" cx="88.1" cy="-5.7" rx="1" ry="1"/>
				<ellipse transform="matrix(0.3622 -0.9321 0.9321 0.3622 62.1075 78.8268)" fill="#FFFFFF" cx="88.7" cy="-6" rx="1" ry="1"/>
				<ellipse transform="matrix(0.3622 -0.9321 0.9321 0.3622 62.541 79.1234)" fill="#FFFFFF" cx="89.1" cy="-6.1" rx="1" ry="1"/>
				
					<ellipse transform="matrix(0.3622 -0.9321 0.9321 0.3622 63.3296 70.3393)" fill="#FFFFFF" cx="83.1" cy="-11.1" rx="0.5" ry="0.5"/>
				
					<ellipse transform="matrix(0.3622 -0.9321 0.9321 0.3622 63.8449 70.3633)" fill="#FFFFFF" cx="83.3" cy="-11.5" rx="0.5" ry="0.5"/>
				
					<ellipse transform="matrix(0.3622 -0.9321 0.9321 0.3622 64.1629 70.9769)" fill="#FFFFFF" cx="83.9" cy="-11.4" rx="0.5" ry="0.5"/>
				
					<ellipse transform="matrix(0.3622 -0.9321 0.9321 0.3622 63.571 71.2425)" fill="#FFFFFF" cx="83.8" cy="-10.8" rx="0.5" ry="0.5"/>
				
					<ellipse transform="matrix(0.3622 -0.9321 0.9321 0.3622 63.0684 70.8986)" fill="#FFFFFF" cx="83.3" cy="-10.6" rx="0.5" ry="0.5"/>
			</g>
			<g>
				<polygon fill="#E31E26" points="71.8,-28.4 74.2,-25.6 76.6,-22.8 73,-22.1 69.4,-21.4 70.6,-24.9 				"/>
				
					<ellipse transform="matrix(0.1861 -0.9825 0.9825 0.1861 77.2867 51.4861)" fill="#FFFFFF" cx="69.7" cy="-20.9" rx="1" ry="1"/>
				<ellipse transform="matrix(0.1861 -0.9825 0.9825 0.1861 77.8166 51.925)" fill="#FFFFFF" cx="70.2" cy="-21" rx="1" ry="1"/>
				
					<ellipse transform="matrix(0.1861 -0.9825 0.9825 0.1861 78.2613 52.2934)" fill="#FFFFFF" cx="70.7" cy="-21.1" rx="1" ry="1"/>
				
					<ellipse transform="matrix(0.1861 -0.9825 0.9825 0.1861 78.7911 52.7323)" fill="#FFFFFF" cx="71.2" cy="-21.2" rx="1" ry="1"/>
				
					<ellipse transform="matrix(0.1861 -0.9825 0.9825 0.1861 79.2358 53.1007)" fill="#FFFFFF" cx="71.7" cy="-21.3" rx="1" ry="1"/>
				
					<ellipse transform="matrix(0.1861 -0.9825 0.9825 0.1861 79.7656 53.5396)" fill="#FFFFFF" cx="72.2" cy="-21.4" rx="1" ry="1"/>
				
					<ellipse transform="matrix(0.1861 -0.9825 0.9825 0.1861 80.4014 54.0663)" fill="#FFFFFF" cx="72.8" cy="-21.5" rx="1" ry="1"/>
				
					<ellipse transform="matrix(0.1861 -0.9825 0.9825 0.1861 80.7401 54.3469)" fill="#FFFFFF" cx="73.2" cy="-21.6" rx="1" ry="1"/>
				
					<ellipse transform="matrix(0.1861 -0.9825 0.9825 0.1861 81.3759 54.8736)" fill="#FFFFFF" cx="73.8" cy="-21.7" rx="1" ry="1"/>
				
					<ellipse transform="matrix(0.1861 -0.9825 0.9825 0.1861 81.9205 55.3247)" fill="#FFFFFF" cx="74.4" cy="-21.8" rx="1" ry="1"/>
				
					<ellipse transform="matrix(0.1861 -0.9825 0.9825 0.1861 82.3504 55.6809)" fill="#FFFFFF" cx="74.8" cy="-21.9" rx="1" ry="1"/>
				<ellipse transform="matrix(0.1861 -0.9825 0.9825 0.1861 82.895 56.132)" fill="#FFFFFF" cx="75.3" cy="-22" rx="1" ry="1"/>
				
					<ellipse transform="matrix(0.1861 -0.9825 0.9825 0.1861 83.5038 56.6364)" fill="#FFFFFF" cx="75.9" cy="-22.1" rx="1" ry="1"/>
				
					<ellipse transform="matrix(0.1861 -0.9825 0.9825 0.1861 83.9607 57.0149)" fill="#FFFFFF" cx="76.4" cy="-22.2" rx="1" ry="1"/>
				
					<ellipse transform="matrix(0.1861 -0.9825 0.9825 0.1861 85.757 47.215)" fill="#FFFFFF" cx="71.4" cy="-28.2" rx="0.5" ry="0.5"/>
				
					<ellipse transform="matrix(0.1861 -0.9825 0.9825 0.1861 86.3342 47.2953)" fill="#FFFFFF" cx="71.7" cy="-28.5" rx="0.5" ry="0.5"/>
				
					<ellipse transform="matrix(0.1861 -0.9825 0.9825 0.1861 86.6285 48.0185)" fill="#FFFFFF" cx="72.3" cy="-28.3" rx="0.5" ry="0.5"/>
				
					<ellipse transform="matrix(0.1861 -0.9825 0.9825 0.1861 85.9352 48.256)" fill="#FFFFFF" cx="72.1" cy="-27.7" rx="0.5" ry="0.5"/>
				
					<ellipse transform="matrix(0.1861 -0.9825 0.9825 0.1861 85.4053 47.8171)" fill="#FFFFFF" cx="71.6" cy="-27.6" rx="0.5" ry="0.5"/>
			</g>
			<g>
				<polygon fill="#E31E26" points="84.1,-35.3 84.3,-31.6 84.5,-28 81.3,-29.6 78,-31.3 81.1,-33.3 				"/>
				<ellipse transform="matrix(0.8929 -0.4502 0.4502 0.8929 22.1369 31.8126)" fill="#FFFFFF" cx="78" cy="-30.6" rx="1" ry="1"/>
				
					<ellipse transform="matrix(0.8929 -0.4502 0.4502 0.8929 22.0792 32.0554)" fill="#FFFFFF" cx="78.4" cy="-30.4" rx="1" ry="1"/>
				
					<ellipse transform="matrix(0.8929 -0.4502 0.4502 0.8929 22.0307 32.2591)" fill="#FFFFFF" cx="78.8" cy="-30.2" rx="1" ry="1"/>
				<ellipse transform="matrix(0.8929 -0.4502 0.4502 0.8929 21.973 32.5019)" fill="#FFFFFF" cx="79.3" cy="-29.9" rx="1" ry="1"/>
				
					<ellipse transform="matrix(0.8929 -0.4502 0.4502 0.8929 21.9245 32.7056)" fill="#FFFFFF" cx="79.7" cy="-29.7" rx="1" ry="1"/>
				
					<ellipse transform="matrix(0.8929 -0.4502 0.4502 0.8929 21.8668 32.9484)" fill="#FFFFFF" cx="80.2" cy="-29.5" rx="1" ry="1"/>
				
					<ellipse transform="matrix(0.8929 -0.4502 0.4502 0.8929 21.7975 33.2397)" fill="#FFFFFF" cx="80.8" cy="-29.2" rx="1" ry="1"/>
				
					<ellipse transform="matrix(0.8929 -0.4502 0.4502 0.8929 21.7606 33.3949)" fill="#FFFFFF" cx="81.1" cy="-29.1" rx="1" ry="1"/>
				
					<ellipse transform="matrix(0.8929 -0.4502 0.4502 0.8929 21.6913 33.6862)" fill="#FFFFFF" cx="81.7" cy="-28.8" rx="1" ry="1"/>
				<ellipse transform="matrix(0.8929 -0.4502 0.4502 0.8929 21.632 33.9357)" fill="#FFFFFF" cx="82.2" cy="-28.5" rx="1" ry="1"/>
				
					<ellipse transform="matrix(0.8929 -0.4502 0.4502 0.8929 21.5852 34.1327)" fill="#FFFFFF" cx="82.6" cy="-28.3" rx="1" ry="1"/>
				<ellipse transform="matrix(0.8929 -0.4502 0.4502 0.8929 21.5258 34.3822)" fill="#FFFFFF" cx="83" cy="-28.1" rx="1" ry="1"/>
				
					<ellipse transform="matrix(0.8929 -0.4502 0.4502 0.8929 21.4595 34.6611)" fill="#FFFFFF" cx="83.6" cy="-27.8" rx="1" ry="1"/>
				<ellipse transform="matrix(0.8929 -0.4502 0.4502 0.8929 21.4097 34.8705)" fill="#FFFFFF" cx="84" cy="-27.6" rx="1" ry="1"/>
				
					<ellipse transform="matrix(0.8929 -0.4502 0.4502 0.8929 24.8853 33.8821)" fill="#FFFFFF" cx="83.7" cy="-35.4" rx="0.5" ry="0.5"/>
				
					<ellipse transform="matrix(0.8929 -0.4502 0.4502 0.8929 24.9518 34.0827)" fill="#FFFFFF" cx="84.1" cy="-35.4" rx="0.5" ry="0.5"/>
				
					<ellipse transform="matrix(0.8929 -0.4502 0.4502 0.8929 24.7638 34.2945)" fill="#FFFFFF" cx="84.5" cy="-34.9" rx="0.5" ry="0.5"/>
				
					<ellipse transform="matrix(0.8929 -0.4502 0.4502 0.8929 24.5753 34.1071)" fill="#FFFFFF" cx="84" cy="-34.6" rx="0.5" ry="0.5"/>
				
					<ellipse transform="matrix(0.8929 -0.4502 0.4502 0.8929 24.633 33.8643)" fill="#FFFFFF" cx="83.5" cy="-34.9" rx="0.5" ry="0.5"/>
			</g>
			<g>
				<polygon fill="#E31E26" points="93.7,-45.2 94.7,-41.7 95.6,-38.1 92.1,-39.1 88.5,-40.1 91.1,-42.6 				"/>
				
					<ellipse transform="matrix(0.9647 -0.2632 0.2632 0.9647 13.5071 21.9358)" fill="#FFFFFF" cx="88.6" cy="-39.4" rx="1" ry="1"/>
				
					<ellipse transform="matrix(0.9647 -0.2632 0.2632 0.9647 13.4881 22.0778)" fill="#FFFFFF" cx="89.1" cy="-39.3" rx="1" ry="1"/>
				
					<ellipse transform="matrix(0.9647 -0.2632 0.2632 0.9647 13.4722 22.1969)" fill="#FFFFFF" cx="89.6" cy="-39.2" rx="1" ry="1"/>
				<ellipse transform="matrix(0.9647 -0.2632 0.2632 0.9647 13.4531 22.3388)" fill="#FFFFFF" cx="90.1" cy="-39" rx="1" ry="1"/>
				<ellipse transform="matrix(0.9647 -0.2632 0.2632 0.9647 13.4372 22.458)" fill="#FFFFFF" cx="90.5" cy="-38.9" rx="1" ry="1"/>
				
					<ellipse transform="matrix(0.9647 -0.2632 0.2632 0.9647 13.4182 22.5999)" fill="#FFFFFF" cx="91.1" cy="-38.8" rx="1" ry="1"/>
				
					<ellipse transform="matrix(0.9647 -0.2632 0.2632 0.9647 13.3953 22.7703)" fill="#FFFFFF" cx="91.7" cy="-38.6" rx="1" ry="1"/>
				<ellipse transform="matrix(0.9647 -0.2632 0.2632 0.9647 13.3832 22.861)" fill="#FFFFFF" cx="92" cy="-38.5" rx="1" ry="1"/>
				
					<ellipse transform="matrix(0.9647 -0.2632 0.2632 0.9647 13.3604 23.0314)" fill="#FFFFFF" cx="92.6" cy="-38.3" rx="1" ry="1"/>
				
					<ellipse transform="matrix(0.9647 -0.2632 0.2632 0.9647 13.3408 23.1772)" fill="#FFFFFF" cx="93.2" cy="-38.2" rx="1" ry="1"/>
				
					<ellipse transform="matrix(0.9647 -0.2632 0.2632 0.9647 13.3254 23.2924)" fill="#FFFFFF" cx="93.6" cy="-38.1" rx="1" ry="1"/>
				
					<ellipse transform="matrix(0.9647 -0.2632 0.2632 0.9647 13.3058 23.4383)" fill="#FFFFFF" cx="94.1" cy="-37.9" rx="1" ry="1"/>
				<ellipse transform="matrix(0.9647 -0.2632 0.2632 0.9647 13.284 23.6014)" fill="#FFFFFF" cx="94.7" cy="-37.8" rx="1" ry="1"/>
				
					<ellipse transform="matrix(0.9647 -0.2632 0.2632 0.9647 13.2676 23.7239)" fill="#FFFFFF" cx="95.2" cy="-37.7" rx="1" ry="1"/>
				
					<ellipse transform="matrix(0.9647 -0.2632 0.2632 0.9647 15.1956 22.9597)" fill="#FFFFFF" cx="93.3" cy="-45.2" rx="0.5" ry="0.5"/>
				
					<ellipse transform="matrix(0.9647 -0.2632 0.2632 0.9647 15.2451 23.0704)" fill="#FFFFFF" cx="93.7" cy="-45.4" rx="0.5" ry="0.5"/>
				
					<ellipse transform="matrix(0.9647 -0.2632 0.2632 0.9647 15.1499 23.2022)" fill="#FFFFFF" cx="94.2" cy="-44.9" rx="0.5" ry="0.5"/>
				
					<ellipse transform="matrix(0.9647 -0.2632 0.2632 0.9647 15.0315 23.106)" fill="#FFFFFF" cx="93.7" cy="-44.5" rx="0.5" ry="0.5"/>
				
					<ellipse transform="matrix(0.9647 -0.2632 0.2632 0.9647 15.0505 22.9641)" fill="#FFFFFF" cx="93.2" cy="-44.7" rx="0.5" ry="0.5"/>
			</g>
			<g>
				<polygon fill="#E31E26" points="92.6,-33 95.4,-30.7 98.3,-28.4 94.9,-27.1 91.5,-25.7 92,-29.4 				"/>
				
					<ellipse transform="matrix(0.3622 -0.9321 0.9321 0.3622 82.1845 69.5407)" fill="#FFFFFF" cx="91.9" cy="-25.3" rx="1" ry="1"/>
				
					<ellipse transform="matrix(0.3622 -0.9321 0.9321 0.3622 82.6871 69.8847)" fill="#FFFFFF" cx="92.4" cy="-25.5" rx="1" ry="1"/>
				<ellipse transform="matrix(0.3622 -0.9321 0.9321 0.3622 83.109 70.1733)" fill="#FFFFFF" cx="92.8" cy="-25.6" rx="1" ry="1"/>
				
					<ellipse transform="matrix(0.3622 -0.9321 0.9321 0.3622 83.6116 70.5172)" fill="#FFFFFF" cx="93.3" cy="-25.8" rx="1" ry="1"/>
				<ellipse transform="matrix(0.3622 -0.9321 0.9321 0.3622 84.0335 70.8059)" fill="#FFFFFF" cx="93.8" cy="-26" rx="1" ry="1"/>
				
					<ellipse transform="matrix(0.3622 -0.9321 0.9321 0.3622 84.5361 71.1498)" fill="#FFFFFF" cx="94.3" cy="-26.2" rx="1" ry="1"/>
				
					<ellipse transform="matrix(0.3622 -0.9321 0.9321 0.3622 85.1392 71.5625)" fill="#FFFFFF" cx="94.9" cy="-26.4" rx="1" ry="1"/>
				
					<ellipse transform="matrix(0.3622 -0.9321 0.9321 0.3622 85.4606 71.7824)" fill="#FFFFFF" cx="95.2" cy="-26.6" rx="1" ry="1"/>
				
					<ellipse transform="matrix(0.3622 -0.9321 0.9321 0.3622 86.0637 72.1951)" fill="#FFFFFF" cx="95.8" cy="-26.8" rx="1" ry="1"/>
				<ellipse transform="matrix(0.3622 -0.9321 0.9321 0.3622 86.5803 72.5486)" fill="#FFFFFF" cx="96.3" cy="-27" rx="1" ry="1"/>
				
					<ellipse transform="matrix(0.3622 -0.9321 0.9321 0.3622 86.9882 72.8277)" fill="#FFFFFF" cx="96.7" cy="-27.2" rx="1" ry="1"/>
				
					<ellipse transform="matrix(0.3622 -0.9321 0.9321 0.3622 87.5048 73.1812)" fill="#FFFFFF" cx="97.2" cy="-27.4" rx="1" ry="1"/>
				
					<ellipse transform="matrix(0.3622 -0.9321 0.9321 0.3622 88.0824 73.5764)" fill="#FFFFFF" cx="97.8" cy="-27.6" rx="1" ry="1"/>
				<ellipse transform="matrix(0.3622 -0.9321 0.9321 0.3622 88.5158 73.873)" fill="#FFFFFF" cx="98.2" cy="-27.7" rx="1" ry="1"/>
				
					<ellipse transform="matrix(0.3622 -0.9321 0.9321 0.3622 89.3044 65.0889)" fill="#FFFFFF" cx="92.2" cy="-32.7" rx="0.5" ry="0.5"/>
				
					<ellipse transform="matrix(0.3622 -0.9321 0.9321 0.3622 89.8197 65.113)" fill="#FFFFFF" cx="92.5" cy="-33.1" rx="0.5" ry="0.5"/>
				
					<ellipse transform="matrix(0.3622 -0.9321 0.9321 0.3622 90.1378 65.7266)" fill="#FFFFFF" cx="93.1" cy="-33" rx="0.5" ry="0.5"/>
				
					<ellipse transform="matrix(0.3622 -0.9321 0.9321 0.3622 89.5459 65.9921)" fill="#FFFFFF" cx="93" cy="-32.4" rx="0.5" ry="0.5"/>
				
					<ellipse transform="matrix(0.3622 -0.9321 0.9321 0.3622 89.0433 65.6482)" fill="#FFFFFF" cx="92.5" cy="-32.2" rx="0.5" ry="0.5"/>
			</g>
			<g>
				<polygon fill="#E31E26" points="79.4,-47.8 81.8,-45 84.2,-42.2 80.6,-41.5 77,-40.8 78.2,-44.3 				"/>
				
					<ellipse transform="matrix(0.1861 -0.9825 0.9825 0.1861 102.5888 43.1989)" fill="#FFFFFF" cx="77.4" cy="-40.3" rx="1" ry="1"/>
				
					<ellipse transform="matrix(0.1861 -0.9825 0.9825 0.1861 103.1186 43.6378)" fill="#FFFFFF" cx="77.9" cy="-40.4" rx="1" ry="1"/>
				
					<ellipse transform="matrix(0.1861 -0.9825 0.9825 0.1861 103.5633 44.0062)" fill="#FFFFFF" cx="78.3" cy="-40.5" rx="1" ry="1"/>
				
					<ellipse transform="matrix(0.1861 -0.9825 0.9825 0.1861 104.0932 44.4451)" fill="#FFFFFF" cx="78.9" cy="-40.6" rx="1" ry="1"/>
				
					<ellipse transform="matrix(0.1861 -0.9825 0.9825 0.1861 104.5379 44.8135)" fill="#FFFFFF" cx="79.3" cy="-40.7" rx="1" ry="1"/>
				
					<ellipse transform="matrix(0.1861 -0.9825 0.9825 0.1861 105.0677 45.2524)" fill="#FFFFFF" cx="79.8" cy="-40.8" rx="1" ry="1"/>
				
					<ellipse transform="matrix(0.1861 -0.9825 0.9825 0.1861 105.7035 45.7791)" fill="#FFFFFF" cx="80.5" cy="-40.9" rx="1" ry="1"/>
				<ellipse transform="matrix(0.1861 -0.9825 0.9825 0.1861 106.0422 46.0597)" fill="#FFFFFF" cx="80.8" cy="-41" rx="1" ry="1"/>
				
					<ellipse transform="matrix(0.1861 -0.9825 0.9825 0.1861 106.678 46.5864)" fill="#FFFFFF" cx="81.5" cy="-41.1" rx="1" ry="1"/>
				<ellipse transform="matrix(0.1861 -0.9825 0.9825 0.1861 107.2225 47.0375)" fill="#FFFFFF" cx="82" cy="-41.2" rx="1" ry="1"/>
				
					<ellipse transform="matrix(0.1861 -0.9825 0.9825 0.1861 107.6525 47.3937)" fill="#FFFFFF" cx="82.4" cy="-41.3" rx="1" ry="1"/>
				<ellipse transform="matrix(0.1861 -0.9825 0.9825 0.1861 108.1971 47.8448)" fill="#FFFFFF" cx="83" cy="-41.4" rx="1" ry="1"/>
				
					<ellipse transform="matrix(0.1861 -0.9825 0.9825 0.1861 108.8059 48.3492)" fill="#FFFFFF" cx="83.6" cy="-41.5" rx="1" ry="1"/>
				<ellipse transform="matrix(0.1861 -0.9825 0.9825 0.1861 109.2628 48.7277)" fill="#FFFFFF" cx="84" cy="-41.6" rx="1" ry="1"/>
				
					<ellipse transform="matrix(0.1861 -0.9825 0.9825 0.1861 111.0591 38.9278)" fill="#FFFFFF" cx="79" cy="-47.6" rx="0.5" ry="0.5"/>
				
					<ellipse transform="matrix(0.1861 -0.9825 0.9825 0.1861 111.6363 39.0082)" fill="#FFFFFF" cx="79.4" cy="-47.9" rx="0.5" ry="0.5"/>
				
					<ellipse transform="matrix(0.1861 -0.9825 0.9825 0.1861 111.9306 39.7314)" fill="#FFFFFF" cx="79.9" cy="-47.7" rx="0.5" ry="0.5"/>
				
					<ellipse transform="matrix(0.1861 -0.9825 0.9825 0.1861 111.2372 39.9688)" fill="#FFFFFF" cx="79.7" cy="-47.2" rx="0.5" ry="0.5"/>
				
					<ellipse transform="matrix(0.1861 -0.9825 0.9825 0.1861 110.7074 39.5299)" fill="#FFFFFF" cx="79.2" cy="-47.1" rx="0.5" ry="0.5"/>
			</g>
			<g>
				<polygon fill="#E31E26" points="112.5,-13.6 112.7,-9.9 112.9,-6.2 109.7,-7.9 106.4,-9.5 109.5,-11.6 				"/>
				
					<ellipse transform="matrix(0.8929 -0.4502 0.4502 0.8929 15.4004 46.9243)" fill="#FFFFFF" cx="106.4" cy="-8.9" rx="1" ry="1"/>
				
					<ellipse transform="matrix(0.8929 -0.4502 0.4502 0.8929 15.3427 47.1671)" fill="#FFFFFF" cx="106.8" cy="-8.7" rx="1" ry="1"/>
				
					<ellipse transform="matrix(0.8929 -0.4502 0.4502 0.8929 15.2942 47.3708)" fill="#FFFFFF" cx="107.2" cy="-8.5" rx="1" ry="1"/>
				
					<ellipse transform="matrix(0.8929 -0.4502 0.4502 0.8929 15.2365 47.6136)" fill="#FFFFFF" cx="107.7" cy="-8.2" rx="1" ry="1"/>
				<ellipse transform="matrix(0.8929 -0.4502 0.4502 0.8929 15.188 47.8173)" fill="#FFFFFF" cx="108.1" cy="-8" rx="1" ry="1"/>
				
					<ellipse transform="matrix(0.8929 -0.4502 0.4502 0.8929 15.1303 48.0601)" fill="#FFFFFF" cx="108.6" cy="-7.8" rx="1" ry="1"/>
				<ellipse transform="matrix(0.8929 -0.4502 0.4502 0.8929 15.061 48.3514)" fill="#FFFFFF" cx="109.2" cy="-7.5" rx="1" ry="1"/>
				
					<ellipse transform="matrix(0.8929 -0.4502 0.4502 0.8929 15.0241 48.5066)" fill="#FFFFFF" cx="109.5" cy="-7.3" rx="1" ry="1"/>
				<ellipse transform="matrix(0.8929 -0.4502 0.4502 0.8929 14.9548 48.7979)" fill="#FFFFFF" cx="110.1" cy="-7" rx="1" ry="1"/>
				
					<ellipse transform="matrix(0.8929 -0.4502 0.4502 0.8929 14.8955 49.0474)" fill="#FFFFFF" cx="110.6" cy="-6.8" rx="1" ry="1"/>
				<ellipse transform="matrix(0.8929 -0.4502 0.4502 0.8929 14.8486 49.2444)" fill="#FFFFFF" cx="111" cy="-6.6" rx="1" ry="1"/>
				
					<ellipse transform="matrix(0.8929 -0.4502 0.4502 0.8929 14.7893 49.4939)" fill="#FFFFFF" cx="111.5" cy="-6.3" rx="1" ry="1"/>
				<ellipse transform="matrix(0.8929 -0.4502 0.4502 0.8929 14.723 49.7728)" fill="#FFFFFF" cx="112" cy="-6.1" rx="1" ry="1"/>
				
					<ellipse transform="matrix(0.8929 -0.4502 0.4502 0.8929 14.6732 49.9822)" fill="#FFFFFF" cx="112.4" cy="-5.9" rx="1" ry="1"/>
				
					<ellipse transform="matrix(0.8929 -0.4502 0.4502 0.8929 18.1488 48.9938)" fill="#FFFFFF" cx="112.1" cy="-13.7" rx="0.5" ry="0.5"/>
				
					<ellipse transform="matrix(0.8929 -0.4502 0.4502 0.8929 18.2152 49.1944)" fill="#FFFFFF" cx="112.5" cy="-13.7" rx="0.5" ry="0.5"/>
				
					<ellipse transform="matrix(0.8929 -0.4502 0.4502 0.8929 18.0273 49.4062)" fill="#FFFFFF" cx="112.9" cy="-13.2" rx="0.5" ry="0.5"/>
				
					<ellipse transform="matrix(0.8929 -0.4502 0.4502 0.8929 17.8388 49.2188)" fill="#FFFFFF" cx="112.4" cy="-12.9" rx="0.5" ry="0.5"/>
				
					<ellipse transform="matrix(0.8929 -0.4502 0.4502 0.8929 17.8965 48.9761)" fill="#FFFFFF" cx="111.9" cy="-13.1" rx="0.5" ry="0.5"/>
			</g>
			<g>
				<polygon fill="#E31E26" points="101.7,-11.3 101.9,-7.7 102.1,-4 98.8,-5.7 95.5,-7.3 98.6,-9.3 				"/>
				<ellipse transform="matrix(0.8929 -0.4502 0.4502 0.8929 13.2374 42.2661)" fill="#FFFFFF" cx="95.5" cy="-6.7" rx="1" ry="1"/>
				<ellipse transform="matrix(0.8929 -0.4502 0.4502 0.8929 13.1797 42.5089)" fill="#FFFFFF" cx="96" cy="-6.5" rx="1" ry="1"/>
				<ellipse transform="matrix(0.8929 -0.4502 0.4502 0.8929 13.1312 42.7127)" fill="#FFFFFF" cx="96.4" cy="-6.3" rx="1" ry="1"/>
				<ellipse transform="matrix(0.8929 -0.4502 0.4502 0.8929 13.0735 42.9554)" fill="#FFFFFF" cx="96.8" cy="-6" rx="1" ry="1"/>
				<ellipse transform="matrix(0.8929 -0.4502 0.4502 0.8929 13.025 43.1591)" fill="#FFFFFF" cx="97.3" cy="-5.8" rx="1" ry="1"/>
				<ellipse transform="matrix(0.8929 -0.4502 0.4502 0.8929 12.9673 43.4019)" fill="#FFFFFF" cx="97.7" cy="-5.6" rx="1" ry="1"/>
				<ellipse transform="matrix(0.8929 -0.4502 0.4502 0.8929 12.898 43.6932)" fill="#FFFFFF" cx="98.3" cy="-5.3" rx="1" ry="1"/>
				<ellipse transform="matrix(0.8929 -0.4502 0.4502 0.8929 12.8611 43.8484)" fill="#FFFFFF" cx="98.6" cy="-5.1" rx="1" ry="1"/>
				<ellipse transform="matrix(0.8929 -0.4502 0.4502 0.8929 12.7919 44.1397)" fill="#FFFFFF" cx="99.2" cy="-4.8" rx="1" ry="1"/>
				<ellipse transform="matrix(0.8929 -0.4502 0.4502 0.8929 12.7325 44.3892)" fill="#FFFFFF" cx="99.7" cy="-4.6" rx="1" ry="1"/>
				
					<ellipse transform="matrix(0.8929 -0.4502 0.4502 0.8929 12.6857 44.5862)" fill="#FFFFFF" cx="100.1" cy="-4.4" rx="1" ry="1"/>
				
					<ellipse transform="matrix(0.8929 -0.4502 0.4502 0.8929 12.6263 44.8357)" fill="#FFFFFF" cx="100.6" cy="-4.1" rx="1" ry="1"/>
				<ellipse transform="matrix(0.8929 -0.4502 0.4502 0.8929 12.56 45.1147)" fill="#FFFFFF" cx="101.1" cy="-3.8" rx="1" ry="1"/>
				<ellipse transform="matrix(0.8929 -0.4502 0.4502 0.8929 12.5102 45.324)" fill="#FFFFFF" cx="101.5" cy="-3.6" rx="1" ry="1"/>
				
					<ellipse transform="matrix(0.8929 -0.4502 0.4502 0.8929 15.9858 44.3356)" fill="#FFFFFF" cx="101.2" cy="-11.4" rx="0.5" ry="0.5"/>
				
					<ellipse transform="matrix(0.8929 -0.4502 0.4502 0.8929 16.0523 44.5363)" fill="#FFFFFF" cx="101.7" cy="-11.5" rx="0.5" ry="0.5"/>
				
					<ellipse transform="matrix(0.8929 -0.4502 0.4502 0.8929 15.8643 44.748)" fill="#FFFFFF" cx="102" cy="-11" rx="0.5" ry="0.5"/>
				
					<ellipse transform="matrix(0.8929 -0.4502 0.4502 0.8929 15.6758 44.5606)" fill="#FFFFFF" cx="101.5" cy="-10.7" rx="0.5" ry="0.5"/>
				
					<ellipse transform="matrix(0.8929 -0.4502 0.4502 0.8929 15.7335 44.3179)" fill="#FFFFFF" cx="101" cy="-10.9" rx="0.5" ry="0.5"/>
			</g>
			<g>
				<polygon fill="#E31E26" points="120.3,-23.6 121.2,-20.1 122.2,-16.5 118.6,-17.5 115.1,-18.5 117.7,-21.1 				"/>
				<ellipse transform="matrix(0.9647 -0.2632 0.2632 0.9647 8.761 29.6907)" fill="#FFFFFF" cx="115.2" cy="-17.8" rx="1" ry="1"/>
				<ellipse transform="matrix(0.9647 -0.2632 0.2632 0.9647 8.742 29.8326)" fill="#FFFFFF" cx="115.7" cy="-17.7" rx="1" ry="1"/>
				<ellipse transform="matrix(0.9647 -0.2632 0.2632 0.9647 8.726 29.9518)" fill="#FFFFFF" cx="116.1" cy="-17.6" rx="1" ry="1"/>
				<ellipse transform="matrix(0.9647 -0.2632 0.2632 0.9647 8.707 30.0937)" fill="#FFFFFF" cx="116.7" cy="-17.4" rx="1" ry="1"/>
				<ellipse transform="matrix(0.9647 -0.2632 0.2632 0.9647 8.691 30.2129)" fill="#FFFFFF" cx="117.1" cy="-17.3" rx="1" ry="1"/>
				<ellipse transform="matrix(0.9647 -0.2632 0.2632 0.9647 8.672 30.3548)" fill="#FFFFFF" cx="117.6" cy="-17.2" rx="1" ry="1"/>
				<ellipse transform="matrix(0.9647 -0.2632 0.2632 0.9647 8.6492 30.5252)" fill="#FFFFFF" cx="118.2" cy="-17" rx="1" ry="1"/>
				<ellipse transform="matrix(0.9647 -0.2632 0.2632 0.9647 8.637 30.6159)" fill="#FFFFFF" cx="118.6" cy="-16.9" rx="1" ry="1"/>
				
					<ellipse transform="matrix(0.9647 -0.2632 0.2632 0.9647 8.6142 30.7862)" fill="#FFFFFF" cx="119.2" cy="-16.8" rx="1" ry="1"/>
				
					<ellipse transform="matrix(0.9647 -0.2632 0.2632 0.9647 8.5947 30.9321)" fill="#FFFFFF" cx="119.7" cy="-16.6" rx="1" ry="1"/>
				
					<ellipse transform="matrix(0.9647 -0.2632 0.2632 0.9647 8.5792 31.0473)" fill="#FFFFFF" cx="120.2" cy="-16.5" rx="1" ry="1"/>
				
					<ellipse transform="matrix(0.9647 -0.2632 0.2632 0.9647 8.5597 31.1932)" fill="#FFFFFF" cx="120.7" cy="-16.3" rx="1" ry="1"/>
				
					<ellipse transform="matrix(0.9647 -0.2632 0.2632 0.9647 8.5378 31.3563)" fill="#FFFFFF" cx="121.3" cy="-16.2" rx="1" ry="1"/>
				
					<ellipse transform="matrix(0.9647 -0.2632 0.2632 0.9647 8.5214 31.4787)" fill="#FFFFFF" cx="121.7" cy="-16.1" rx="1" ry="1"/>
				
					<ellipse transform="matrix(0.9647 -0.2632 0.2632 0.9647 10.4494 30.7146)" fill="#FFFFFF" cx="119.8" cy="-23.6" rx="0.5" ry="0.5"/>
				
					<ellipse transform="matrix(0.9647 -0.2632 0.2632 0.9647 10.4989 30.8253)" fill="#FFFFFF" cx="120.3" cy="-23.8" rx="0.5" ry="0.5"/>
				
					<ellipse transform="matrix(0.9647 -0.2632 0.2632 0.9647 10.4037 30.9571)" fill="#FFFFFF" cx="120.7" cy="-23.3" rx="0.5" ry="0.5"/>
				
					<ellipse transform="matrix(0.9647 -0.2632 0.2632 0.9647 10.2853 30.8609)" fill="#FFFFFF" cx="120.3" cy="-23" rx="0.5" ry="0.5"/>
				
					<ellipse transform="matrix(0.9647 -0.2632 0.2632 0.9647 10.3043 30.7189)" fill="#FFFFFF" cx="119.8" cy="-23.1" rx="0.5" ry="0.5"/>
			</g>
			<g>
				<polygon fill="#E31E26" points="121,-11.3 123.9,-9 126.7,-6.7 123.3,-5.3 119.9,-4 120.4,-7.6 				"/>
				
					<ellipse transform="matrix(0.3622 -0.9321 0.9321 0.3622 80.0556 109.8675)" fill="#FFFFFF" cx="120.3" cy="-3.6" rx="1" ry="1"/>
				
					<ellipse transform="matrix(0.3622 -0.9321 0.9321 0.3622 80.5582 110.2114)" fill="#FFFFFF" cx="120.8" cy="-3.8" rx="1" ry="1"/>
				
					<ellipse transform="matrix(0.3622 -0.9321 0.9321 0.3622 80.9801 110.5001)" fill="#FFFFFF" cx="121.2" cy="-3.9" rx="1" ry="1"/>
				
					<ellipse transform="matrix(0.3622 -0.9321 0.9321 0.3622 81.4827 110.844)" fill="#FFFFFF" cx="121.7" cy="-4.1" rx="1" ry="1"/>
				
					<ellipse transform="matrix(0.3622 -0.9321 0.9321 0.3622 81.9046 111.1327)" fill="#FFFFFF" cx="122.2" cy="-4.3" rx="1" ry="1"/>
				
					<ellipse transform="matrix(0.3622 -0.9321 0.9321 0.3622 82.4072 111.4766)" fill="#FFFFFF" cx="122.7" cy="-4.5" rx="1" ry="1"/>
				
					<ellipse transform="matrix(0.3622 -0.9321 0.9321 0.3622 83.0104 111.8893)" fill="#FFFFFF" cx="123.3" cy="-4.7" rx="1" ry="1"/>
				
					<ellipse transform="matrix(0.3622 -0.9321 0.9321 0.3622 83.3317 112.1092)" fill="#FFFFFF" cx="123.6" cy="-4.8" rx="1" ry="1"/>
				
					<ellipse transform="matrix(0.3622 -0.9321 0.9321 0.3622 83.9348 112.5219)" fill="#FFFFFF" cx="124.2" cy="-5.1" rx="1" ry="1"/>
				
					<ellipse transform="matrix(0.3622 -0.9321 0.9321 0.3622 84.4514 112.8753)" fill="#FFFFFF" cx="124.7" cy="-5.3" rx="1" ry="1"/>
				
					<ellipse transform="matrix(0.3622 -0.9321 0.9321 0.3622 84.8593 113.1544)" fill="#FFFFFF" cx="125.1" cy="-5.4" rx="1" ry="1"/>
				
					<ellipse transform="matrix(0.3622 -0.9321 0.9321 0.3622 85.3759 113.5079)" fill="#FFFFFF" cx="125.6" cy="-5.6" rx="1" ry="1"/>
				
					<ellipse transform="matrix(0.3622 -0.9321 0.9321 0.3622 85.9535 113.9031)" fill="#FFFFFF" cx="126.2" cy="-5.9" rx="1" ry="1"/>
				<ellipse transform="matrix(0.3622 -0.9321 0.9321 0.3622 86.387 114.1997)" fill="#FFFFFF" cx="126.6" cy="-6" rx="1" ry="1"/>
				
					<ellipse transform="matrix(0.3622 -0.9321 0.9321 0.3622 87.1756 105.4157)" fill="#FFFFFF" cx="120.6" cy="-11" rx="0.5" ry="0.5"/>
				
					<ellipse transform="matrix(0.3622 -0.9321 0.9321 0.3622 87.6909 105.4397)" fill="#FFFFFF" cx="120.9" cy="-11.4" rx="0.5" ry="0.5"/>
				
					<ellipse transform="matrix(0.3622 -0.9321 0.9321 0.3622 88.0089 106.0533)" fill="#FFFFFF" cx="121.5" cy="-11.3" rx="0.5" ry="0.5"/>
				
					<ellipse transform="matrix(0.3622 -0.9321 0.9321 0.3622 87.417 106.3189)" fill="#FFFFFF" cx="121.4" cy="-10.7" rx="0.5" ry="0.5"/>
				
					<ellipse transform="matrix(0.3622 -0.9321 0.9321 0.3622 86.9144 105.9749)" fill="#FFFFFF" cx="120.9" cy="-10.5" rx="0.5" ry="0.5"/>
			</g>
			<g>
				<polygon fill="#E31E26" points="104.1,-25.9 106.5,-23.1 108.9,-20.3 105.3,-19.7 101.7,-19 102.9,-22.4 				"/>
				
					<ellipse transform="matrix(0.1861 -0.9825 0.9825 0.1861 101.1676 85.2321)" fill="#FFFFFF" cx="102" cy="-18.4" rx="1" ry="1"/>
				
					<ellipse transform="matrix(0.1861 -0.9825 0.9825 0.1861 101.6974 85.671)" fill="#FFFFFF" cx="102.6" cy="-18.5" rx="1" ry="1"/>
				
					<ellipse transform="matrix(0.1861 -0.9825 0.9825 0.1861 102.1421 86.0394)" fill="#FFFFFF" cx="103" cy="-18.6" rx="1" ry="1"/>
				
					<ellipse transform="matrix(0.1861 -0.9825 0.9825 0.1861 102.6719 86.4783)" fill="#FFFFFF" cx="103.5" cy="-18.7" rx="1" ry="1"/>
				
					<ellipse transform="matrix(0.1861 -0.9825 0.9825 0.1861 103.1166 86.8467)" fill="#FFFFFF" cx="104" cy="-18.8" rx="1" ry="1"/>
				
					<ellipse transform="matrix(0.1861 -0.9825 0.9825 0.1861 103.6464 87.2856)" fill="#FFFFFF" cx="104.5" cy="-18.9" rx="1" ry="1"/>
				
					<ellipse transform="matrix(0.1861 -0.9825 0.9825 0.1861 104.2822 87.8123)" fill="#FFFFFF" cx="105.1" cy="-19" rx="1" ry="1"/>
				
					<ellipse transform="matrix(0.1861 -0.9825 0.9825 0.1861 104.621 88.0929)" fill="#FFFFFF" cx="105.5" cy="-19.1" rx="1" ry="1"/>
				
					<ellipse transform="matrix(0.1861 -0.9825 0.9825 0.1861 105.2568 88.6196)" fill="#FFFFFF" cx="106.1" cy="-19.2" rx="1" ry="1"/>
				
					<ellipse transform="matrix(0.1861 -0.9825 0.9825 0.1861 105.8013 89.0707)" fill="#FFFFFF" cx="106.7" cy="-19.3" rx="1" ry="1"/>
				
					<ellipse transform="matrix(0.1861 -0.9825 0.9825 0.1861 106.2313 89.4269)" fill="#FFFFFF" cx="107.1" cy="-19.4" rx="1" ry="1"/>
				
					<ellipse transform="matrix(0.1861 -0.9825 0.9825 0.1861 106.7758 89.878)" fill="#FFFFFF" cx="107.6" cy="-19.5" rx="1" ry="1"/>
				
					<ellipse transform="matrix(0.1861 -0.9825 0.9825 0.1861 107.3847 90.3824)" fill="#FFFFFF" cx="108.2" cy="-19.6" rx="1" ry="1"/>
				
					<ellipse transform="matrix(0.1861 -0.9825 0.9825 0.1861 107.8416 90.7609)" fill="#FFFFFF" cx="108.7" cy="-19.7" rx="1" ry="1"/>
				
					<ellipse transform="matrix(0.1861 -0.9825 0.9825 0.1861 109.6379 80.961)" fill="#FFFFFF" cx="103.7" cy="-25.7" rx="0.5" ry="0.5"/>
				
					<ellipse transform="matrix(0.1861 -0.9825 0.9825 0.1861 110.215 81.0414)" fill="#FFFFFF" cx="104" cy="-26" rx="0.5" ry="0.5"/>
				
					<ellipse transform="matrix(0.1861 -0.9825 0.9825 0.1861 110.5094 81.7646)" fill="#FFFFFF" cx="104.6" cy="-25.8" rx="0.5" ry="0.5"/>
				
					<ellipse transform="matrix(0.1861 -0.9825 0.9825 0.1861 109.816 82.002)" fill="#FFFFFF" cx="104.4" cy="-25.3" rx="0.5" ry="0.5"/>
				
					<ellipse transform="matrix(0.1861 -0.9825 0.9825 0.1861 109.2862 81.5631)" fill="#FFFFFF" cx="103.9" cy="-25.2" rx="0.5" ry="0.5"/>
			</g>
			<g>
				<polygon fill="#E31E26" points="92.9,-20.9 95.3,-18.1 97.7,-15.3 94.1,-14.6 90.5,-13.9 91.7,-17.4 				"/>
				
					<ellipse transform="matrix(0.1861 -0.9825 0.9825 0.1861 87.1356 78.3453)" fill="#FFFFFF" cx="90.9" cy="-13.4" rx="1" ry="1"/>
				
					<ellipse transform="matrix(0.1861 -0.9825 0.9825 0.1861 87.6655 78.7842)" fill="#FFFFFF" cx="91.4" cy="-13.5" rx="1" ry="1"/>
				
					<ellipse transform="matrix(0.1861 -0.9825 0.9825 0.1861 88.1102 79.1526)" fill="#FFFFFF" cx="91.8" cy="-13.6" rx="1" ry="1"/>
				<ellipse transform="matrix(0.1861 -0.9825 0.9825 0.1861 88.64 79.5915)" fill="#FFFFFF" cx="92.4" cy="-13.7" rx="1" ry="1"/>
				
					<ellipse transform="matrix(0.1861 -0.9825 0.9825 0.1861 89.0847 79.9599)" fill="#FFFFFF" cx="92.8" cy="-13.8" rx="1" ry="1"/>
				
					<ellipse transform="matrix(0.1861 -0.9825 0.9825 0.1861 89.6145 80.3988)" fill="#FFFFFF" cx="93.3" cy="-13.9" rx="1" ry="1"/>
				<ellipse transform="matrix(0.1861 -0.9825 0.9825 0.1861 90.2503 80.9255)" fill="#FFFFFF" cx="94" cy="-14" rx="1" ry="1"/>
				<ellipse transform="matrix(0.1861 -0.9825 0.9825 0.1861 90.589 81.2061)" fill="#FFFFFF" cx="94.3" cy="-14.1" rx="1" ry="1"/>
				
					<ellipse transform="matrix(0.1861 -0.9825 0.9825 0.1861 91.2248 81.7328)" fill="#FFFFFF" cx="94.9" cy="-14.2" rx="1" ry="1"/>
				
					<ellipse transform="matrix(0.1861 -0.9825 0.9825 0.1861 91.7694 82.1839)" fill="#FFFFFF" cx="95.5" cy="-14.3" rx="1" ry="1"/>
				
					<ellipse transform="matrix(0.1861 -0.9825 0.9825 0.1861 92.1993 82.5401)" fill="#FFFFFF" cx="95.9" cy="-14.4" rx="1" ry="1"/>
				
					<ellipse transform="matrix(0.1861 -0.9825 0.9825 0.1861 92.7439 82.9912)" fill="#FFFFFF" cx="96.5" cy="-14.5" rx="1" ry="1"/>
				
					<ellipse transform="matrix(0.1861 -0.9825 0.9825 0.1861 93.3527 83.4956)" fill="#FFFFFF" cx="97.1" cy="-14.6" rx="1" ry="1"/>
				
					<ellipse transform="matrix(0.1861 -0.9825 0.9825 0.1861 93.8096 83.8741)" fill="#FFFFFF" cx="97.5" cy="-14.7" rx="1" ry="1"/>
				
					<ellipse transform="matrix(0.1861 -0.9825 0.9825 0.1861 95.6059 74.0742)" fill="#FFFFFF" cx="92.5" cy="-20.7" rx="0.5" ry="0.5"/>
				
					<ellipse transform="matrix(0.1861 -0.9825 0.9825 0.1861 96.1831 74.1545)" fill="#FFFFFF" cx="92.8" cy="-21" rx="0.5" ry="0.5"/>
				
					<ellipse transform="matrix(0.1861 -0.9825 0.9825 0.1861 96.4774 74.8777)" fill="#FFFFFF" cx="93.4" cy="-20.8" rx="0.5" ry="0.5"/>
				
					<ellipse transform="matrix(0.1861 -0.9825 0.9825 0.1861 95.7841 75.1152)" fill="#FFFFFF" cx="93.2" cy="-20.3" rx="0.5" ry="0.5"/>
				
					<ellipse transform="matrix(0.1861 -0.9825 0.9825 0.1861 95.2542 74.6763)" fill="#FFFFFF" cx="92.7" cy="-20.2" rx="0.5" ry="0.5"/>
			</g>
			<g>
				<polygon fill="#E31E26" points="115,-34.4 115.2,-30.7 115.4,-27.1 112.1,-28.7 108.9,-30.4 111.9,-32.4 				"/>
				
					<ellipse transform="matrix(0.8929 -0.4502 0.4502 0.8929 25.0459 45.8026)" fill="#FFFFFF" cx="108.8" cy="-29.8" rx="1" ry="1"/>
				
					<ellipse transform="matrix(0.8929 -0.4502 0.4502 0.8929 24.9882 46.0454)" fill="#FFFFFF" cx="109.3" cy="-29.5" rx="1" ry="1"/>
				
					<ellipse transform="matrix(0.8929 -0.4502 0.4502 0.8929 24.9397 46.2491)" fill="#FFFFFF" cx="109.7" cy="-29.3" rx="1" ry="1"/>
				
					<ellipse transform="matrix(0.8929 -0.4502 0.4502 0.8929 24.882 46.4919)" fill="#FFFFFF" cx="110.2" cy="-29.1" rx="1" ry="1"/>
				
					<ellipse transform="matrix(0.8929 -0.4502 0.4502 0.8929 24.8336 46.6956)" fill="#FFFFFF" cx="110.6" cy="-28.9" rx="1" ry="1"/>
				
					<ellipse transform="matrix(0.8929 -0.4502 0.4502 0.8929 24.7758 46.9384)" fill="#FFFFFF" cx="111.1" cy="-28.6" rx="1" ry="1"/>
				
					<ellipse transform="matrix(0.8929 -0.4502 0.4502 0.8929 24.7065 47.2297)" fill="#FFFFFF" cx="111.7" cy="-28.3" rx="1" ry="1"/>
				<ellipse transform="matrix(0.8929 -0.4502 0.4502 0.8929 24.6696 47.3849)" fill="#FFFFFF" cx="112" cy="-28.2" rx="1" ry="1"/>
				
					<ellipse transform="matrix(0.8929 -0.4502 0.4502 0.8929 24.6004 47.6762)" fill="#FFFFFF" cx="112.5" cy="-27.9" rx="1" ry="1"/>
				<ellipse transform="matrix(0.8929 -0.4502 0.4502 0.8929 24.541 47.9257)" fill="#FFFFFF" cx="113" cy="-27.6" rx="1" ry="1"/>
				
					<ellipse transform="matrix(0.8929 -0.4502 0.4502 0.8929 24.4942 48.1227)" fill="#FFFFFF" cx="113.4" cy="-27.4" rx="1" ry="1"/>
				
					<ellipse transform="matrix(0.8929 -0.4502 0.4502 0.8929 24.4348 48.3722)" fill="#FFFFFF" cx="113.9" cy="-27.2" rx="1" ry="1"/>
				
					<ellipse transform="matrix(0.8929 -0.4502 0.4502 0.8929 24.3685 48.6512)" fill="#FFFFFF" cx="114.5" cy="-26.9" rx="1" ry="1"/>
				
					<ellipse transform="matrix(0.8929 -0.4502 0.4502 0.8929 24.3187 48.8605)" fill="#FFFFFF" cx="114.9" cy="-26.7" rx="1" ry="1"/>
				
					<ellipse transform="matrix(0.8929 -0.4502 0.4502 0.8929 27.7943 47.8721)" fill="#FFFFFF" cx="114.5" cy="-34.5" rx="0.5" ry="0.5"/>
				
					<ellipse transform="matrix(0.8929 -0.4502 0.4502 0.8929 27.8608 48.0727)" fill="#FFFFFF" cx="115" cy="-34.5" rx="0.5" ry="0.5"/>
				
					<ellipse transform="matrix(0.8929 -0.4502 0.4502 0.8929 27.6728 48.2845)" fill="#FFFFFF" cx="115.4" cy="-34" rx="0.5" ry="0.5"/>
				
					<ellipse transform="matrix(0.8929 -0.4502 0.4502 0.8929 27.4843 48.0971)" fill="#FFFFFF" cx="114.9" cy="-33.7" rx="0.5" ry="0.5"/>
				
					<ellipse transform="matrix(0.8929 -0.4502 0.4502 0.8929 27.542 47.8544)" fill="#FFFFFF" cx="114.4" cy="-34" rx="0.5" ry="0.5"/>
			</g>
			<g>
				<polygon fill="#E31E26" points="124.4,-39.9 125.4,-36.4 126.3,-32.8 122.8,-33.8 119.2,-34.7 121.8,-37.3 				"/>
				
					<ellipse transform="matrix(0.9647 -0.2632 0.2632 0.9647 13.1893 30.2053)" fill="#FFFFFF" cx="119.3" cy="-34.1" rx="1" ry="1"/>
				<ellipse transform="matrix(0.9647 -0.2632 0.2632 0.9647 13.1703 30.3472)" fill="#FFFFFF" cx="119.8" cy="-34" rx="1" ry="1"/>
				
					<ellipse transform="matrix(0.9647 -0.2632 0.2632 0.9647 13.1544 30.4663)" fill="#FFFFFF" cx="120.3" cy="-33.9" rx="1" ry="1"/>
				
					<ellipse transform="matrix(0.9647 -0.2632 0.2632 0.9647 13.1353 30.6083)" fill="#FFFFFF" cx="120.8" cy="-33.7" rx="1" ry="1"/>
				
					<ellipse transform="matrix(0.9647 -0.2632 0.2632 0.9647 13.1194 30.7274)" fill="#FFFFFF" cx="121.2" cy="-33.6" rx="1" ry="1"/>
				
					<ellipse transform="matrix(0.9647 -0.2632 0.2632 0.9647 13.1004 30.8694)" fill="#FFFFFF" cx="121.8" cy="-33.5" rx="1" ry="1"/>
				
					<ellipse transform="matrix(0.9647 -0.2632 0.2632 0.9647 13.0775 31.0397)" fill="#FFFFFF" cx="122.4" cy="-33.3" rx="1" ry="1"/>
				
					<ellipse transform="matrix(0.9647 -0.2632 0.2632 0.9647 13.0654 31.1305)" fill="#FFFFFF" cx="122.7" cy="-33.2" rx="1" ry="1"/>
				<ellipse transform="matrix(0.9647 -0.2632 0.2632 0.9647 13.0426 31.3008)" fill="#FFFFFF" cx="123.3" cy="-33" rx="1" ry="1"/>
				
					<ellipse transform="matrix(0.9647 -0.2632 0.2632 0.9647 13.023 31.4467)" fill="#FFFFFF" cx="123.9" cy="-32.9" rx="1" ry="1"/>
				
					<ellipse transform="matrix(0.9647 -0.2632 0.2632 0.9647 13.0076 31.5619)" fill="#FFFFFF" cx="124.3" cy="-32.8" rx="1" ry="1"/>
				
					<ellipse transform="matrix(0.9647 -0.2632 0.2632 0.9647 12.988 31.7078)" fill="#FFFFFF" cx="124.8" cy="-32.6" rx="1" ry="1"/>
				
					<ellipse transform="matrix(0.9647 -0.2632 0.2632 0.9647 12.9662 31.8709)" fill="#FFFFFF" cx="125.4" cy="-32.5" rx="1" ry="1"/>
				
					<ellipse transform="matrix(0.9647 -0.2632 0.2632 0.9647 12.9498 31.9933)" fill="#FFFFFF" cx="125.9" cy="-32.3" rx="1" ry="1"/>
				
					<ellipse transform="matrix(0.9647 -0.2632 0.2632 0.9647 14.8778 31.2291)" fill="#FFFFFF" cx="124" cy="-39.9" rx="0.5" ry="0.5"/>
				
					<ellipse transform="matrix(0.9647 -0.2632 0.2632 0.9647 14.9273 31.3399)" fill="#FFFFFF" cx="124.4" cy="-40" rx="0.5" ry="0.5"/>
				
					<ellipse transform="matrix(0.9647 -0.2632 0.2632 0.9647 14.8321 31.4716)" fill="#FFFFFF" cx="124.9" cy="-39.6" rx="0.5" ry="0.5"/>
				
					<ellipse transform="matrix(0.9647 -0.2632 0.2632 0.9647 14.7137 31.3754)" fill="#FFFFFF" cx="124.4" cy="-39.2" rx="0.5" ry="0.5"/>
				
					<ellipse transform="matrix(0.9647 -0.2632 0.2632 0.9647 14.7327 31.2335)" fill="#FFFFFF" cx="123.9" cy="-39.4" rx="0.5" ry="0.5"/>
			</g>
			<g>
				<polygon fill="#E31E26" points="126.5,-28.4 129.3,-26.1 132.2,-23.8 128.8,-22.4 125.4,-21.1 125.9,-24.7 				"/>
				
					<ellipse transform="matrix(0.3622 -0.9321 0.9321 0.3622 99.4856 104.084)" fill="#FFFFFF" cx="125.8" cy="-20.7" rx="1" ry="1"/>
				
					<ellipse transform="matrix(0.3622 -0.9321 0.9321 0.3622 99.9883 104.4279)" fill="#FFFFFF" cx="126.3" cy="-20.8" rx="1" ry="1"/>
				
					<ellipse transform="matrix(0.3622 -0.9321 0.9321 0.3622 100.4101 104.7166)" fill="#FFFFFF" cx="126.7" cy="-21" rx="1" ry="1"/>
				
					<ellipse transform="matrix(0.3622 -0.9321 0.9321 0.3622 100.9128 105.0605)" fill="#FFFFFF" cx="127.2" cy="-21.2" rx="1" ry="1"/>
				
					<ellipse transform="matrix(0.3622 -0.9321 0.9321 0.3622 101.3346 105.3491)" fill="#FFFFFF" cx="127.6" cy="-21.4" rx="1" ry="1"/>
				
					<ellipse transform="matrix(0.3622 -0.9321 0.9321 0.3622 101.8372 105.6931)" fill="#FFFFFF" cx="128.2" cy="-21.6" rx="1" ry="1"/>
				
					<ellipse transform="matrix(0.3622 -0.9321 0.9321 0.3622 102.4404 106.1058)" fill="#FFFFFF" cx="128.8" cy="-21.8" rx="1" ry="1"/>
				
					<ellipse transform="matrix(0.3622 -0.9321 0.9321 0.3622 102.7617 106.3256)" fill="#FFFFFF" cx="129.1" cy="-21.9" rx="1" ry="1"/>
				
					<ellipse transform="matrix(0.3622 -0.9321 0.9321 0.3622 103.3649 106.7383)" fill="#FFFFFF" cx="129.7" cy="-22.2" rx="1" ry="1"/>
				
					<ellipse transform="matrix(0.3622 -0.9321 0.9321 0.3622 103.8815 107.0918)" fill="#FFFFFF" cx="130.2" cy="-22.4" rx="1" ry="1"/>
				
					<ellipse transform="matrix(0.3622 -0.9321 0.9321 0.3622 104.2894 107.3709)" fill="#FFFFFF" cx="130.6" cy="-22.5" rx="1" ry="1"/>
				
					<ellipse transform="matrix(0.3622 -0.9321 0.9321 0.3622 104.806 107.7244)" fill="#FFFFFF" cx="131.1" cy="-22.7" rx="1" ry="1"/>
				
					<ellipse transform="matrix(0.3622 -0.9321 0.9321 0.3622 105.3836 108.1196)" fill="#FFFFFF" cx="131.7" cy="-22.9" rx="1" ry="1"/>
				
					<ellipse transform="matrix(0.3622 -0.9321 0.9321 0.3622 105.817 108.4162)" fill="#FFFFFF" cx="132.1" cy="-23.1" rx="1" ry="1"/>
				
					<ellipse transform="matrix(0.3622 -0.9321 0.9321 0.3622 106.6056 99.6322)" fill="#FFFFFF" cx="126.1" cy="-28.1" rx="0.5" ry="0.5"/>
				
					<ellipse transform="matrix(0.3622 -0.9321 0.9321 0.3622 107.1209 99.6562)" fill="#FFFFFF" cx="126.4" cy="-28.4" rx="0.5" ry="0.5"/>
				
					<ellipse transform="matrix(0.3622 -0.9321 0.9321 0.3622 107.439 100.2698)" fill="#FFFFFF" cx="127" cy="-28.4" rx="0.5" ry="0.5"/>
				
					<ellipse transform="matrix(0.3622 -0.9321 0.9321 0.3622 106.8471 100.5353)" fill="#FFFFFF" cx="126.9" cy="-27.8" rx="0.5" ry="0.5"/>
				
					<ellipse transform="matrix(0.3622 -0.9321 0.9321 0.3622 106.3445 100.1914)" fill="#FFFFFF" cx="126.4" cy="-27.6" rx="0.5" ry="0.5"/>
			</g>
			<g>
				<polygon fill="#E31E26" points="115.3,-46.2 117.1,-43 118.9,-39.8 115.2,-39.9 111.6,-39.9 113.4,-43.1 				"/>
				
					<ellipse transform="matrix(0.9999 -1.681725e-02 1.681725e-02 0.9999 0.6778 1.8744)" fill="#FFFFFF" cx="111.8" cy="-39.4" rx="1" ry="1"/>
				
					<ellipse transform="matrix(0.9999 -1.681725e-02 1.681725e-02 0.9999 0.6777 1.8835)" fill="#FFFFFF" cx="112.3" cy="-39.4" rx="1" ry="1"/>
				
					<ellipse transform="matrix(0.9999 -1.681725e-02 1.681725e-02 0.9999 0.6776 1.8911)" fill="#FFFFFF" cx="112.8" cy="-39.3" rx="1" ry="1"/>
				
					<ellipse transform="matrix(0.9999 -1.681725e-02 1.681725e-02 0.9999 0.6775 1.9001)" fill="#FFFFFF" cx="113.3" cy="-39.3" rx="1" ry="1"/>
				
					<ellipse transform="matrix(0.9999 -1.681725e-02 1.681725e-02 0.9999 0.6775 1.9078)" fill="#FFFFFF" cx="113.8" cy="-39.3" rx="1" ry="1"/>
				
					<ellipse transform="matrix(0.9999 -1.681725e-02 1.681725e-02 0.9999 0.6774 1.9168)" fill="#FFFFFF" cx="114.3" cy="-39.3" rx="1" ry="1"/>
				
					<ellipse transform="matrix(0.9999 -1.681725e-02 1.681725e-02 0.9999 0.6773 1.9277)" fill="#FFFFFF" cx="115" cy="-39.3" rx="1" ry="1"/>
				
					<ellipse transform="matrix(0.9999 -1.681725e-02 1.681725e-02 0.9999 0.6773 1.9335)" fill="#FFFFFF" cx="115.3" cy="-39.3" rx="1" ry="1"/>
				
					<ellipse transform="matrix(0.9999 -1.681725e-02 1.681725e-02 0.9999 0.6772 1.9444)" fill="#FFFFFF" cx="115.9" cy="-39.3" rx="1" ry="1"/>
				
					<ellipse transform="matrix(0.9999 -1.681725e-02 1.681725e-02 0.9999 0.6771 1.9537)" fill="#FFFFFF" cx="116.5" cy="-39.3" rx="1" ry="1"/>
				
					<ellipse transform="matrix(0.9999 -1.681725e-02 1.681725e-02 0.9999 0.677 1.9611)" fill="#FFFFFF" cx="116.9" cy="-39.3" rx="1" ry="1"/>
				
					<ellipse transform="matrix(0.9999 -1.681725e-02 1.681725e-02 0.9999 0.6769 1.9704)" fill="#FFFFFF" cx="117.5" cy="-39.3" rx="1" ry="1"/>
				
					<ellipse transform="matrix(0.9999 -1.681725e-02 1.681725e-02 0.9999 0.6769 1.9808)" fill="#FFFFFF" cx="118.1" cy="-39.3" rx="1" ry="1"/>
				
					<ellipse transform="matrix(0.9999 -1.681725e-02 1.681725e-02 0.9999 0.6768 1.9886)" fill="#FFFFFF" cx="118.6" cy="-39.2" rx="1" ry="1"/>
				
					<ellipse transform="matrix(0.9999 -1.681725e-02 1.681725e-02 0.9999 0.7919 1.9254)" fill="#FFFFFF" cx="114.9" cy="-46.1" rx="0.5" ry="0.5"/>
				
					<ellipse transform="matrix(0.9999 -1.681725e-02 1.681725e-02 0.9999 0.7959 1.932)" fill="#FFFFFF" cx="115.3" cy="-46.4" rx="0.5" ry="0.5"/>
				
					<ellipse transform="matrix(0.9999 -1.681725e-02 1.681725e-02 0.9999 0.791 1.941)" fill="#FFFFFF" cx="115.8" cy="-46.1" rx="0.5" ry="0.5"/>
				
					<ellipse transform="matrix(0.9999 -1.681725e-02 1.681725e-02 0.9999 0.7828 1.9359)" fill="#FFFFFF" cx="115.5" cy="-45.6" rx="0.5" ry="0.5"/>
				
					<ellipse transform="matrix(0.9999 -1.681725e-02 1.681725e-02 0.9999 0.7828 1.9268)" fill="#FFFFFF" cx="115" cy="-45.6" rx="0.5" ry="0.5"/>
			</g>
			<g>
				<polygon fill="#E31E26" points="73,-41.3 74,-37.7 74.9,-34.2 71.4,-35.2 67.8,-36.1 70.4,-38.7 				"/>
				
					<ellipse transform="matrix(0.9647 -0.2632 0.2632 0.9647 11.7385 16.6209)" fill="#FFFFFF" cx="67.9" cy="-35.5" rx="1" ry="1"/>
				
					<ellipse transform="matrix(0.9647 -0.2632 0.2632 0.9647 11.7194 16.7629)" fill="#FFFFFF" cx="68.4" cy="-35.4" rx="1" ry="1"/>
				<ellipse transform="matrix(0.9647 -0.2632 0.2632 0.9647 11.7035 16.882)" fill="#FFFFFF" cx="68.9" cy="-35.2" rx="1" ry="1"/>
				<ellipse transform="matrix(0.9647 -0.2632 0.2632 0.9647 11.6845 17.024)" fill="#FFFFFF" cx="69.4" cy="-35.1" rx="1" ry="1"/>
				<ellipse transform="matrix(0.9647 -0.2632 0.2632 0.9647 11.6685 17.1431)" fill="#FFFFFF" cx="69.8" cy="-35" rx="1" ry="1"/>
				<ellipse transform="matrix(0.9647 -0.2632 0.2632 0.9647 11.6495 17.285)" fill="#FFFFFF" cx="70.3" cy="-34.8" rx="1" ry="1"/>
				<ellipse transform="matrix(0.9647 -0.2632 0.2632 0.9647 11.6267 17.4554)" fill="#FFFFFF" cx="71" cy="-34.7" rx="1" ry="1"/>
				
					<ellipse transform="matrix(0.9647 -0.2632 0.2632 0.9647 11.6145 17.5461)" fill="#FFFFFF" cx="71.3" cy="-34.6" rx="1" ry="1"/>
				
					<ellipse transform="matrix(0.9647 -0.2632 0.2632 0.9647 11.5917 17.7165)" fill="#FFFFFF" cx="71.9" cy="-34.4" rx="1" ry="1"/>
				
					<ellipse transform="matrix(0.9647 -0.2632 0.2632 0.9647 11.5721 17.8623)" fill="#FFFFFF" cx="72.4" cy="-34.3" rx="1" ry="1"/>
				
					<ellipse transform="matrix(0.9647 -0.2632 0.2632 0.9647 11.5567 17.9775)" fill="#FFFFFF" cx="72.9" cy="-34.1" rx="1" ry="1"/>
				<ellipse transform="matrix(0.9647 -0.2632 0.2632 0.9647 11.5372 18.1234)" fill="#FFFFFF" cx="73.4" cy="-34" rx="1" ry="1"/>
				<ellipse transform="matrix(0.9647 -0.2632 0.2632 0.9647 11.5153 18.2866)" fill="#FFFFFF" cx="74" cy="-33.8" rx="1" ry="1"/>
				<ellipse transform="matrix(0.9647 -0.2632 0.2632 0.9647 11.4989 18.409)" fill="#FFFFFF" cx="74.5" cy="-33.7" rx="1" ry="1"/>
				
					<ellipse transform="matrix(0.9647 -0.2632 0.2632 0.9647 13.4269 17.6448)" fill="#FFFFFF" cx="72.6" cy="-41.3" rx="0.5" ry="0.5"/>
				
					<ellipse transform="matrix(0.9647 -0.2632 0.2632 0.9647 13.4764 17.7555)" fill="#FFFFFF" cx="73" cy="-41.4" rx="0.5" ry="0.5"/>
				
					<ellipse transform="matrix(0.9647 -0.2632 0.2632 0.9647 13.3812 17.8873)" fill="#FFFFFF" cx="73.4" cy="-41" rx="0.5" ry="0.5"/>
				
					<ellipse transform="matrix(0.9647 -0.2632 0.2632 0.9647 13.2628 17.7911)" fill="#FFFFFF" cx="73" cy="-40.6" rx="0.5" ry="0.5"/>
				
					<ellipse transform="matrix(0.9647 -0.2632 0.2632 0.9647 13.2818 17.6492)" fill="#FFFFFF" cx="72.5" cy="-40.7" rx="0.5" ry="0.5"/>
			</g>
			<g>
				<polygon fill="#E31E26" points="72.6,-56.4 73.5,-52.8 74.4,-49.3 70.9,-50.3 67.4,-51.2 70,-53.8 				"/>
				
					<ellipse transform="matrix(0.9647 -0.2632 0.2632 0.9647 15.6968 15.9665)" fill="#FFFFFF" cx="67.4" cy="-50.6" rx="1" ry="1"/>
				<ellipse transform="matrix(0.9647 -0.2632 0.2632 0.9647 15.6777 16.1085)" fill="#FFFFFF" cx="68" cy="-50.5" rx="1" ry="1"/>
				
					<ellipse transform="matrix(0.9647 -0.2632 0.2632 0.9647 15.6618 16.2276)" fill="#FFFFFF" cx="68.4" cy="-50.3" rx="1" ry="1"/>
				
					<ellipse transform="matrix(0.9647 -0.2632 0.2632 0.9647 15.6428 16.3696)" fill="#FFFFFF" cx="68.9" cy="-50.2" rx="1" ry="1"/>
				
					<ellipse transform="matrix(0.9647 -0.2632 0.2632 0.9647 15.6268 16.4887)" fill="#FFFFFF" cx="69.3" cy="-50.1" rx="1" ry="1"/>
				
					<ellipse transform="matrix(0.9647 -0.2632 0.2632 0.9647 15.6078 16.6306)" fill="#FFFFFF" cx="69.9" cy="-49.9" rx="1" ry="1"/>
				<ellipse transform="matrix(0.9647 -0.2632 0.2632 0.9647 15.585 16.801)" fill="#FFFFFF" cx="70.5" cy="-49.8" rx="1" ry="1"/>
				
					<ellipse transform="matrix(0.9647 -0.2632 0.2632 0.9647 15.5728 16.8917)" fill="#FFFFFF" cx="70.8" cy="-49.7" rx="1" ry="1"/>
				<ellipse transform="matrix(0.9647 -0.2632 0.2632 0.9647 15.55 17.0621)" fill="#FFFFFF" cx="71.4" cy="-49.5" rx="1" ry="1"/>
				<ellipse transform="matrix(0.9647 -0.2632 0.2632 0.9647 15.5304 17.208)" fill="#FFFFFF" cx="72" cy="-49.4" rx="1" ry="1"/>
				<ellipse transform="matrix(0.9647 -0.2632 0.2632 0.9647 15.515 17.3231)" fill="#FFFFFF" cx="72.4" cy="-49.2" rx="1" ry="1"/>
				<ellipse transform="matrix(0.9647 -0.2632 0.2632 0.9647 15.4954 17.469)" fill="#FFFFFF" cx="72.9" cy="-49.1" rx="1" ry="1"/>
				
					<ellipse transform="matrix(0.9647 -0.2632 0.2632 0.9647 15.4736 17.6322)" fill="#FFFFFF" cx="73.5" cy="-48.9" rx="1" ry="1"/>
				<ellipse transform="matrix(0.9647 -0.2632 0.2632 0.9647 15.4572 17.7546)" fill="#FFFFFF" cx="74" cy="-48.8" rx="1" ry="1"/>
				
					<ellipse transform="matrix(0.9647 -0.2632 0.2632 0.9647 17.3852 16.9904)" fill="#FFFFFF" cx="72.1" cy="-56.4" rx="0.5" ry="0.5"/>
				
					<ellipse transform="matrix(0.9647 -0.2632 0.2632 0.9647 17.4347 17.1012)" fill="#FFFFFF" cx="72.5" cy="-56.5" rx="0.5" ry="0.5"/>
				
					<ellipse transform="matrix(0.9647 -0.2632 0.2632 0.9647 17.3395 17.2329)" fill="#FFFFFF" cx="73" cy="-56.1" rx="0.5" ry="0.5"/>
				
					<ellipse transform="matrix(0.9647 -0.2632 0.2632 0.9647 17.2211 17.1367)" fill="#FFFFFF" cx="72.6" cy="-55.7" rx="0.5" ry="0.5"/>
				
					<ellipse transform="matrix(0.9647 -0.2632 0.2632 0.9647 17.2401 16.9948)" fill="#FFFFFF" cx="72" cy="-55.8" rx="0.5" ry="0.5"/>
			</g>
			<g>
				<polygon fill="#E31E26" points="88.5,-56.8 89.4,-53.2 90.4,-49.7 86.8,-50.7 83.3,-51.6 85.9,-54.2 				"/>
				<ellipse transform="matrix(0.9647 -0.2632 0.2632 0.9647 16.3636 20.1445)" fill="#FFFFFF" cx="83.4" cy="-51" rx="1" ry="1"/>
				
					<ellipse transform="matrix(0.9647 -0.2632 0.2632 0.9647 16.3446 20.2864)" fill="#FFFFFF" cx="83.9" cy="-50.9" rx="1" ry="1"/>
				
					<ellipse transform="matrix(0.9647 -0.2632 0.2632 0.9647 16.3286 20.4055)" fill="#FFFFFF" cx="84.3" cy="-50.7" rx="1" ry="1"/>
				
					<ellipse transform="matrix(0.9647 -0.2632 0.2632 0.9647 16.3096 20.5475)" fill="#FFFFFF" cx="84.8" cy="-50.6" rx="1" ry="1"/>
				
					<ellipse transform="matrix(0.9647 -0.2632 0.2632 0.9647 16.2936 20.6666)" fill="#FFFFFF" cx="85.3" cy="-50.5" rx="1" ry="1"/>
				
					<ellipse transform="matrix(0.9647 -0.2632 0.2632 0.9647 16.2746 20.8086)" fill="#FFFFFF" cx="85.8" cy="-50.3" rx="1" ry="1"/>
				
					<ellipse transform="matrix(0.9647 -0.2632 0.2632 0.9647 16.2518 20.9789)" fill="#FFFFFF" cx="86.4" cy="-50.2" rx="1" ry="1"/>
				
					<ellipse transform="matrix(0.9647 -0.2632 0.2632 0.9647 16.2396 21.0697)" fill="#FFFFFF" cx="86.7" cy="-50.1" rx="1" ry="1"/>
				<ellipse transform="matrix(0.9647 -0.2632 0.2632 0.9647 16.2168 21.24)" fill="#FFFFFF" cx="87.4" cy="-49.9" rx="1" ry="1"/>
				
					<ellipse transform="matrix(0.9647 -0.2632 0.2632 0.9647 16.1973 21.3859)" fill="#FFFFFF" cx="87.9" cy="-49.8" rx="1" ry="1"/>
				
					<ellipse transform="matrix(0.9647 -0.2632 0.2632 0.9647 16.1818 21.5011)" fill="#FFFFFF" cx="88.3" cy="-49.6" rx="1" ry="1"/>
				<ellipse transform="matrix(0.9647 -0.2632 0.2632 0.9647 16.1623 21.647)" fill="#FFFFFF" cx="88.9" cy="-49.5" rx="1" ry="1"/>
				
					<ellipse transform="matrix(0.9647 -0.2632 0.2632 0.9647 16.1404 21.8101)" fill="#FFFFFF" cx="89.5" cy="-49.3" rx="1" ry="1"/>
				<ellipse transform="matrix(0.9647 -0.2632 0.2632 0.9647 16.124 21.9325)" fill="#FFFFFF" cx="89.9" cy="-49.2" rx="1" ry="1"/>
				
					<ellipse transform="matrix(0.9647 -0.2632 0.2632 0.9647 18.052 21.1683)" fill="#FFFFFF" cx="88" cy="-56.8" rx="0.5" ry="0.5"/>
				
					<ellipse transform="matrix(0.9647 -0.2632 0.2632 0.9647 18.1015 21.2791)" fill="#FFFFFF" cx="88.5" cy="-56.9" rx="0.5" ry="0.5"/>
				
					<ellipse transform="matrix(0.9647 -0.2632 0.2632 0.9647 18.0063 21.4108)" fill="#FFFFFF" cx="88.9" cy="-56.5" rx="0.5" ry="0.5"/>
				
					<ellipse transform="matrix(0.9647 -0.2632 0.2632 0.9647 17.8879 21.3146)" fill="#FFFFFF" cx="88.5" cy="-56.1" rx="0.5" ry="0.5"/>
				
					<ellipse transform="matrix(0.9647 -0.2632 0.2632 0.9647 17.9069 21.1727)" fill="#FFFFFF" cx="88" cy="-56.2" rx="0.5" ry="0.5"/>
			</g>
			<g>
				<polygon fill="#E31E26" points="105.4,-40.6 106.3,-37.1 107.2,-33.5 103.7,-34.5 100.2,-35.4 102.8,-38 				"/>
				
					<ellipse transform="matrix(0.9647 -0.2632 0.2632 0.9647 12.7011 25.1578)" fill="#FFFFFF" cx="100.2" cy="-34.8" rx="1" ry="1"/>
				
					<ellipse transform="matrix(0.9647 -0.2632 0.2632 0.9647 12.6821 25.2997)" fill="#FFFFFF" cx="100.8" cy="-34.7" rx="1" ry="1"/>
				
					<ellipse transform="matrix(0.9647 -0.2632 0.2632 0.9647 12.6661 25.4189)" fill="#FFFFFF" cx="101.2" cy="-34.6" rx="1" ry="1"/>
				
					<ellipse transform="matrix(0.9647 -0.2632 0.2632 0.9647 12.6471 25.5608)" fill="#FFFFFF" cx="101.7" cy="-34.4" rx="1" ry="1"/>
				<ellipse transform="matrix(0.9647 -0.2632 0.2632 0.9647 12.6312 25.68)" fill="#FFFFFF" cx="102.2" cy="-34.3" rx="1" ry="1"/>
				
					<ellipse transform="matrix(0.9647 -0.2632 0.2632 0.9647 12.6121 25.8219)" fill="#FFFFFF" cx="102.7" cy="-34.2" rx="1" ry="1"/>
				<ellipse transform="matrix(0.9647 -0.2632 0.2632 0.9647 12.5893 25.9922)" fill="#FFFFFF" cx="103.3" cy="-34" rx="1" ry="1"/>
				
					<ellipse transform="matrix(0.9647 -0.2632 0.2632 0.9647 12.5772 26.083)" fill="#FFFFFF" cx="103.6" cy="-33.9" rx="1" ry="1"/>
				
					<ellipse transform="matrix(0.9647 -0.2632 0.2632 0.9647 12.5543 26.2533)" fill="#FFFFFF" cx="104.3" cy="-33.7" rx="1" ry="1"/>
				
					<ellipse transform="matrix(0.9647 -0.2632 0.2632 0.9647 12.5348 26.3992)" fill="#FFFFFF" cx="104.8" cy="-33.6" rx="1" ry="1"/>
				
					<ellipse transform="matrix(0.9647 -0.2632 0.2632 0.9647 12.5194 26.5144)" fill="#FFFFFF" cx="105.2" cy="-33.5" rx="1" ry="1"/>
				
					<ellipse transform="matrix(0.9647 -0.2632 0.2632 0.9647 12.4998 26.6603)" fill="#FFFFFF" cx="105.7" cy="-33.3" rx="1" ry="1"/>
				
					<ellipse transform="matrix(0.9647 -0.2632 0.2632 0.9647 12.478 26.8234)" fill="#FFFFFF" cx="106.3" cy="-33.2" rx="1" ry="1"/>
				<ellipse transform="matrix(0.9647 -0.2632 0.2632 0.9647 12.4616 26.9458)" fill="#FFFFFF" cx="106.8" cy="-33" rx="1" ry="1"/>
				
					<ellipse transform="matrix(0.9647 -0.2632 0.2632 0.9647 14.3896 26.1817)" fill="#FFFFFF" cx="104.9" cy="-40.6" rx="0.5" ry="0.5"/>
				
					<ellipse transform="matrix(0.9647 -0.2632 0.2632 0.9647 14.4391 26.2924)" fill="#FFFFFF" cx="105.3" cy="-40.7" rx="0.5" ry="0.5"/>
				
					<ellipse transform="matrix(0.9647 -0.2632 0.2632 0.9647 14.3439 26.4242)" fill="#FFFFFF" cx="105.8" cy="-40.3" rx="0.5" ry="0.5"/>
				
					<ellipse transform="matrix(0.9647 -0.2632 0.2632 0.9647 14.2255 26.328)" fill="#FFFFFF" cx="105.4" cy="-39.9" rx="0.5" ry="0.5"/>
				
					<ellipse transform="matrix(0.9647 -0.2632 0.2632 0.9647 14.2445 26.186)" fill="#FFFFFF" cx="104.8" cy="-40.1" rx="0.5" ry="0.5"/>
			</g>
			<g>
				<polygon fill="#E31E26" points="100,-52.3 102.4,-49.5 104.8,-46.7 101.1,-46 97.5,-45.3 98.8,-48.8 				"/>
				
					<ellipse transform="matrix(0.1861 -0.9825 0.9825 0.1861 123.7072 59.7098)" fill="#FFFFFF" cx="97.9" cy="-44.8" rx="1" ry="1"/>
				
					<ellipse transform="matrix(0.1861 -0.9825 0.9825 0.1861 124.237 60.1487)" fill="#FFFFFF" cx="98.4" cy="-44.9" rx="1" ry="1"/>
				<ellipse transform="matrix(0.1861 -0.9825 0.9825 0.1861 124.6817 60.5171)" fill="#FFFFFF" cx="98.9" cy="-45" rx="1" ry="1"/>
				
					<ellipse transform="matrix(0.1861 -0.9825 0.9825 0.1861 125.2115 60.956)" fill="#FFFFFF" cx="99.4" cy="-45.1" rx="1" ry="1"/>
				
					<ellipse transform="matrix(0.1861 -0.9825 0.9825 0.1861 125.6562 61.3244)" fill="#FFFFFF" cx="99.8" cy="-45.2" rx="1" ry="1"/>
				
					<ellipse transform="matrix(0.1861 -0.9825 0.9825 0.1861 126.186 61.7633)" fill="#FFFFFF" cx="100.4" cy="-45.3" rx="1" ry="1"/>
				<ellipse transform="matrix(0.1861 -0.9825 0.9825 0.1861 126.8218 62.29)" fill="#FFFFFF" cx="101" cy="-45.4" rx="1" ry="1"/>
				
					<ellipse transform="matrix(0.1861 -0.9825 0.9825 0.1861 127.1605 62.5706)" fill="#FFFFFF" cx="101.3" cy="-45.5" rx="1" ry="1"/>
				
					<ellipse transform="matrix(0.1861 -0.9825 0.9825 0.1861 127.7963 63.0973)" fill="#FFFFFF" cx="102" cy="-45.6" rx="1" ry="1"/>
				
					<ellipse transform="matrix(0.1861 -0.9825 0.9825 0.1861 128.3409 63.5484)" fill="#FFFFFF" cx="102.5" cy="-45.7" rx="1" ry="1"/>
				
					<ellipse transform="matrix(0.1861 -0.9825 0.9825 0.1861 128.7708 63.9046)" fill="#FFFFFF" cx="103" cy="-45.8" rx="1" ry="1"/>
				
					<ellipse transform="matrix(0.1861 -0.9825 0.9825 0.1861 129.3154 64.3557)" fill="#FFFFFF" cx="103.5" cy="-45.9" rx="1" ry="1"/>
				
					<ellipse transform="matrix(0.1861 -0.9825 0.9825 0.1861 129.9242 64.8601)" fill="#FFFFFF" cx="104.1" cy="-46" rx="1" ry="1"/>
				
					<ellipse transform="matrix(0.1861 -0.9825 0.9825 0.1861 130.3811 65.2386)" fill="#FFFFFF" cx="104.6" cy="-46.1" rx="1" ry="1"/>
				
					<ellipse transform="matrix(0.1861 -0.9825 0.9825 0.1861 132.1774 55.4387)" fill="#FFFFFF" cx="99.5" cy="-52.1" rx="0.5" ry="0.5"/>
				
					<ellipse transform="matrix(0.1861 -0.9825 0.9825 0.1861 132.7546 55.5191)" fill="#FFFFFF" cx="99.9" cy="-52.4" rx="0.5" ry="0.5"/>
				
					<ellipse transform="matrix(0.1861 -0.9825 0.9825 0.1861 133.0489 56.2423)" fill="#FFFFFF" cx="100.5" cy="-52.2" rx="0.5" ry="0.5"/>
				
					<ellipse transform="matrix(0.1861 -0.9825 0.9825 0.1861 132.3556 56.4797)" fill="#FFFFFF" cx="100.3" cy="-51.6" rx="0.5" ry="0.5"/>
				
					<ellipse transform="matrix(0.1861 -0.9825 0.9825 0.1861 131.8258 56.0408)" fill="#FFFFFF" cx="99.7" cy="-51.5" rx="0.5" ry="0.5"/>
			</g>
			<g>
				<polygon fill="#E31E26" points="124.5,-53.4 126.9,-50.6 129.3,-47.8 125.7,-47.2 122.1,-46.5 123.3,-49.9 				"/>
				
					<ellipse transform="matrix(0.1861 -0.9825 0.9825 0.1861 144.824 82.9247)" fill="#FFFFFF" cx="122.5" cy="-45.9" rx="1" ry="1"/>
				<ellipse transform="matrix(0.1861 -0.9825 0.9825 0.1861 145.3539 83.3636)" fill="#FFFFFF" cx="123" cy="-46" rx="1" ry="1"/>
				
					<ellipse transform="matrix(0.1861 -0.9825 0.9825 0.1861 145.7986 83.732)" fill="#FFFFFF" cx="123.4" cy="-46.1" rx="1" ry="1"/>
				
					<ellipse transform="matrix(0.1861 -0.9825 0.9825 0.1861 146.3284 84.1709)" fill="#FFFFFF" cx="124" cy="-46.2" rx="1" ry="1"/>
				
					<ellipse transform="matrix(0.1861 -0.9825 0.9825 0.1861 146.7731 84.5393)" fill="#FFFFFF" cx="124.4" cy="-46.3" rx="1" ry="1"/>
				
					<ellipse transform="matrix(0.1861 -0.9825 0.9825 0.1861 147.3029 84.9782)" fill="#FFFFFF" cx="124.9" cy="-46.4" rx="1" ry="1"/>
				
					<ellipse transform="matrix(0.1861 -0.9825 0.9825 0.1861 147.9387 85.5049)" fill="#FFFFFF" cx="125.6" cy="-46.5" rx="1" ry="1"/>
				
					<ellipse transform="matrix(0.1861 -0.9825 0.9825 0.1861 148.2774 85.7855)" fill="#FFFFFF" cx="125.9" cy="-46.6" rx="1" ry="1"/>
				
					<ellipse transform="matrix(0.1861 -0.9825 0.9825 0.1861 148.9132 86.3122)" fill="#FFFFFF" cx="126.6" cy="-46.7" rx="1" ry="1"/>
				
					<ellipse transform="matrix(0.1861 -0.9825 0.9825 0.1861 149.4577 86.7633)" fill="#FFFFFF" cx="127.1" cy="-46.8" rx="1" ry="1"/>
				
					<ellipse transform="matrix(0.1861 -0.9825 0.9825 0.1861 149.8877 87.1195)" fill="#FFFFFF" cx="127.5" cy="-46.9" rx="1" ry="1"/>
				
					<ellipse transform="matrix(0.1861 -0.9825 0.9825 0.1861 150.4323 87.5706)" fill="#FFFFFF" cx="128.1" cy="-47" rx="1" ry="1"/>
				
					<ellipse transform="matrix(0.1861 -0.9825 0.9825 0.1861 151.0411 88.075)" fill="#FFFFFF" cx="128.7" cy="-47.1" rx="1" ry="1"/>
				
					<ellipse transform="matrix(0.1861 -0.9825 0.9825 0.1861 151.498 88.4535)" fill="#FFFFFF" cx="129.1" cy="-47.2" rx="1" ry="1"/>
				
					<ellipse transform="matrix(0.1861 -0.9825 0.9825 0.1861 153.2943 78.6536)" fill="#FFFFFF" cx="124.1" cy="-53.2" rx="0.5" ry="0.5"/>
				
					<ellipse transform="matrix(0.1861 -0.9825 0.9825 0.1861 153.8715 78.734)" fill="#FFFFFF" cx="124.5" cy="-53.5" rx="0.5" ry="0.5"/>
				
					<ellipse transform="matrix(0.1861 -0.9825 0.9825 0.1861 154.1658 79.4572)" fill="#FFFFFF" cx="125" cy="-53.3" rx="0.5" ry="0.5"/>
				
					<ellipse transform="matrix(0.1861 -0.9825 0.9825 0.1861 153.4725 79.6946)" fill="#FFFFFF" cx="124.8" cy="-52.8" rx="0.5" ry="0.5"/>
				
					<ellipse transform="matrix(0.1861 -0.9825 0.9825 0.1861 152.9426 79.2557)" fill="#FFFFFF" cx="124.3" cy="-52.7" rx="0.5" ry="0.5"/>
			</g>
			<g>
				<polygon fill="#E31E26" points="112.9,-56.7 113.2,-53.1 113.4,-49.4 110.1,-51 106.8,-52.7 109.9,-54.7 				"/>
				
					<ellipse transform="matrix(0.8955 -0.4451 0.4451 0.8955 34.3247 42.0814)" fill="#FFFFFF" cx="106.8" cy="-52.1" rx="1" ry="1"/>
				
					<ellipse transform="matrix(0.8955 -0.4451 0.4451 0.8955 34.2683 42.3214)" fill="#FFFFFF" cx="107.3" cy="-51.8" rx="1" ry="1"/>
				
					<ellipse transform="matrix(0.8955 -0.4451 0.4451 0.8955 34.221 42.5229)" fill="#FFFFFF" cx="107.7" cy="-51.6" rx="1" ry="1"/>
				
					<ellipse transform="matrix(0.8955 -0.4451 0.4451 0.8955 34.1647 42.7629)" fill="#FFFFFF" cx="108.1" cy="-51.4" rx="1" ry="1"/>
				
					<ellipse transform="matrix(0.8955 -0.4451 0.4451 0.8955 34.1174 42.9643)" fill="#FFFFFF" cx="108.5" cy="-51.2" rx="1" ry="1"/>
				<ellipse transform="matrix(0.8955 -0.4451 0.4451 0.8955 34.061 43.2043)" fill="#FFFFFF" cx="109" cy="-50.9" rx="1" ry="1"/>
				
					<ellipse transform="matrix(0.8955 -0.4451 0.4451 0.8955 33.9934 43.4923)" fill="#FFFFFF" cx="109.6" cy="-50.6" rx="1" ry="1"/>
				
					<ellipse transform="matrix(0.8955 -0.4451 0.4451 0.8955 33.9574 43.6457)" fill="#FFFFFF" cx="109.9" cy="-50.5" rx="1" ry="1"/>
				
					<ellipse transform="matrix(0.8955 -0.4451 0.4451 0.8955 33.8897 43.9337)" fill="#FFFFFF" cx="110.5" cy="-50.2" rx="1" ry="1"/>
				<ellipse transform="matrix(0.8955 -0.4451 0.4451 0.8955 33.8318 44.1804)" fill="#FFFFFF" cx="111" cy="-50" rx="1" ry="1"/>
				
					<ellipse transform="matrix(0.8955 -0.4451 0.4451 0.8955 33.7861 44.3752)" fill="#FFFFFF" cx="111.4" cy="-49.8" rx="1" ry="1"/>
				
					<ellipse transform="matrix(0.8955 -0.4451 0.4451 0.8955 33.7282 44.6219)" fill="#FFFFFF" cx="111.9" cy="-49.5" rx="1" ry="1"/>
				
					<ellipse transform="matrix(0.8955 -0.4451 0.4451 0.8955 33.6634 44.8977)" fill="#FFFFFF" cx="112.4" cy="-49.2" rx="1" ry="1"/>
				<ellipse transform="matrix(0.8955 -0.4451 0.4451 0.8955 33.6148 45.1046)" fill="#FFFFFF" cx="112.9" cy="-49" rx="1" ry="1"/>
				
					<ellipse transform="matrix(0.8955 -0.4451 0.4451 0.8955 37.0459 44.1183)" fill="#FFFFFF" cx="112.5" cy="-56.8" rx="0.5" ry="0.5"/>
				
					<ellipse transform="matrix(0.8955 -0.4451 0.4451 0.8955 37.1121 44.3163)" fill="#FFFFFF" cx="112.9" cy="-56.9" rx="0.5" ry="0.5"/>
				
					<ellipse transform="matrix(0.8955 -0.4451 0.4451 0.8955 36.927 44.5261)" fill="#FFFFFF" cx="113.3" cy="-56.4" rx="0.5" ry="0.5"/>
				
					<ellipse transform="matrix(0.8955 -0.4451 0.4451 0.8955 36.7402 44.3415)" fill="#FFFFFF" cx="112.8" cy="-56.1" rx="0.5" ry="0.5"/>
				
					<ellipse transform="matrix(0.8955 -0.4451 0.4451 0.8955 36.7966 44.1015)" fill="#FFFFFF" cx="112.3" cy="-56.3" rx="0.5" ry="0.5"/>
			</g>
		</g>
		<g>
			<rect y="-58" fill="#C6D8E2" width="66" height="58"/>
			<g>
				<polygon fill="#E31E26" points="60.5,-28.4 63.3,-26.1 66.2,-23.8 62.8,-22.4 59.4,-21.1 59.9,-24.7 				"/>
				
					<ellipse transform="matrix(0.3622 -0.9321 0.9321 0.3622 61.7874 45.5735)" fill="#FFFFFF" cx="64.2" cy="-22.4" rx="1" ry="1"/>
				
					<ellipse transform="matrix(0.3622 -0.9321 0.9321 0.3622 62.1953 45.8526)" fill="#FFFFFF" cx="64.6" cy="-22.5" rx="1" ry="1"/>
				<ellipse transform="matrix(0.3622 -0.9321 0.9321 0.3622 62.7118 46.206)" fill="#FFFFFF" cx="65.1" cy="-22.7" rx="1" ry="1"/>
				
					<ellipse transform="matrix(0.3622 -0.9321 0.9321 0.3622 63.2894 46.6013)" fill="#FFFFFF" cx="65.7" cy="-22.9" rx="1" ry="1"/>
				
					<ellipse transform="matrix(0.3622 -0.9321 0.9321 0.3622 63.7229 46.8979)" fill="#FFFFFF" cx="66.1" cy="-23.1" rx="1" ry="1"/>
			</g>
		</g>
		<g>
			<rect x="66" y="-116" fill="#C6D8E2" width="66" height="58"/>
		</g>
		<g>
			<rect y="-116" fill="#C6D8E2" width="66" height="58"/>
		</g>
	</g>
</pattern>
<g id="Layer_2">
	<rect x="-9" y="-9" fill="url(#New_Pattern_2)" width="618" height="970.2"/>
</g>
<g id="Layer_1">
	<line fill="#3D4920" x1="29.3" y1="834.2" x2="29.8" y2="899.5"/>
	<polygon fill="#3D4920" points="29,823.3 40.6,843.3 52.1,863.3 29,863.3 5.9,863.3 17.4,843.3 	"/>
	<polygon fill="#3D4920" points="29.3,838.4 40.8,858.4 52.4,878.5 29.3,878.5 6.2,878.5 17.7,858.4 	"/>
	<polygon fill="#3D4920" points="29,854.2 40.6,874.2 52.1,894.2 29,894.2 5.9,894.2 17.4,874.2 	"/>
	<line fill="#3D4920" x1="93.7" y1="801.6" x2="94.5" y2="901.6"/>
	<polygon fill="#3D4920" points="93.3,785 111,815.6 128.7,846.3 93.3,846.3 57.9,846.3 75.6,815.6 	"/>
	<polygon fill="#3D4920" points="93.7,808.2 111.4,838.8 129.1,869.5 93.7,869.5 58.4,869.5 76,838.8 	"/>
	<polygon fill="#3D4920" points="93.3,832.3 111,862.9 128.7,893.6 93.3,893.6 57.9,893.6 75.6,862.9 	"/>
	<line fill="#3D4920" x1="228.1" y1="801.6" x2="228.8" y2="901.6"/>
	<polygon fill="#3D4920" points="227.6,785 245.3,815.6 263,846.3 227.6,846.3 192.2,846.3 209.9,815.6 	"/>
	<polygon fill="#3D4920" points="228.1,808.2 245.7,838.8 263.4,869.5 228.1,869.5 192.7,869.5 210.4,838.8 	"/>
	<polygon fill="#3D4920" points="227.6,832.3 245.3,862.9 263,893.6 227.6,893.6 192.2,893.6 209.9,862.9 	"/>
	<line fill="#3D4920" x1="506.3" y1="785.1" x2="507.2" y2="900.2"/>
	<polygon fill="#3D4920" points="505.8,766 526.2,801.2 546.5,836.5 505.8,836.5 465.1,836.5 485.5,801.2 	"/>
	<polygon fill="#3D4920" points="506.3,792.6 526.7,827.9 547,863.1 506.3,863.1 465.6,863.1 486,827.9 	"/>
	<polygon fill="#3D4920" points="505.8,820.4 526.2,855.6 546.5,890.9 505.8,890.9 465.1,890.9 485.5,855.6 	"/>
	<line fill="#3D4920" x1="440.5" y1="787.6" x2="441.4" y2="902.6"/>
	<polygon fill="#3D4920" points="440,768.4 460.4,803.7 480.8,838.9 440,838.9 399.3,838.9 419.7,803.7 	"/>
	<polygon fill="#3D4920" points="440.5,795.1 460.9,830.3 481.3,865.6 440.5,865.6 399.8,865.6 420.2,830.3 	"/>
	<polygon fill="#3D4920" points="440,822.8 460.4,858.1 480.8,893.3 440,893.3 399.3,893.3 419.7,858.1 	"/>
	<line fill="#3D4920" x1="161.5" y1="784.3" x2="162.4" y2="899.4"/>
	<polygon fill="#3D4920" points="161,765.2 181.4,800.4 201.7,835.7 161,835.7 120.3,835.7 140.7,800.4 	"/>
	<polygon fill="#3D4920" points="161.5,791.8 181.9,827.1 202.2,862.4 161.5,862.4 120.8,862.4 141.2,827.1 	"/>
	<polygon fill="#3D4920" points="161,819.6 181.4,854.8 201.7,890.1 161,890.1 120.3,890.1 140.7,854.8 	"/>
	<line fill="#3D4920" x1="280.4" y1="782.4" x2="281.2" y2="897.4"/>
	<polygon fill="#3D4920" points="279.9,763.2 300.2,798.5 320.6,833.8 279.9,833.8 239.2,833.8 259.5,798.5 	"/>
	<polygon fill="#3D4920" points="280.4,789.9 300.7,825.2 321.1,860.4 280.4,860.4 239.7,860.4 260,825.2 	"/>
	<polygon fill="#3D4920" points="279.9,817.6 300.2,852.9 320.6,888.2 279.9,888.2 239.2,888.2 259.5,852.9 	"/>
	<line fill="#3D4920" x1="369.4" y1="787.7" x2="370.2" y2="902.8"/>
	<polygon fill="#3D4920" points="368.9,768.6 389.2,803.9 409.6,839.1 368.9,839.1 328.2,839.1 348.5,803.9 	"/>
	<polygon fill="#3D4920" points="369.4,795.3 389.7,830.5 410.1,865.8 369.4,865.8 328.7,865.8 349,830.5 	"/>
	<polygon fill="#3D4920" points="368.9,823 389.2,858.3 409.6,893.5 368.9,893.5 328.2,893.5 348.5,858.3 	"/>
	<polygon fill="#3D4920" points="29.3,785.8 47,816.4 64.7,847.1 29.3,847.1 -6.1,847.1 11.6,816.4 	"/>
	<polygon fill="#3D4920" points="29.7,809 47.4,839.6 65.1,870.2 29.7,870.2 -5.6,870.2 12,839.6 	"/>
	<polygon fill="#3D4920" points="29.3,833.1 47,863.7 64.7,894.3 29.3,894.3 -6.1,894.3 11.6,863.7 	"/>
	<line fill="#3D4920" x1="576.5" y1="800.8" x2="577.3" y2="900.8"/>
	<rect x="358.1" y="890.9" fill="#3D4920" width="4.6" height="11.5"/>
	<rect x="21.1" y="890.5" fill="#3D4920" width="4.6" height="11.5"/>
	<rect x="492.8" y="890.5" fill="#3D4920" width="4.6" height="11.5"/>
	<path fill="#FFFFFF" d="M29.5,785.8c0,0,17.3,30,17.7,30.6c-0.3-0.6-7.8,2.8-8.5,3.1c-4.3,1.7-8.3,3.6-13,2.7
		c-4.9-1-9.3-3.8-13.9-5.7L29.5,785.8z"/>
	<path fill="#FFFFFF" d="M93.3,785c0,0,17.3,30,17.7,30.6c-0.3-0.6-7.8,2.8-8.5,3.1c-4.3,1.7-8.3,3.6-13,2.7
		c-4.9-1-9.3-3.8-13.9-5.7L93.3,785z"/>
	<path fill="#FFFFFF" d="M161,765.2c0,0,17.3,29.8,17.7,30.4c-0.3-0.6-7.8,2.8-8.5,3c-4.3,1.7-8.3,3.6-13,2.6
		c-4.9-1-9.3-3.8-13.9-5.7L161,765.2z"/>
	<path fill="#FFFFFF" d="M227.6,785.1c0,0,17.3,29.8,17.7,30.4c-0.3-0.6-7.8,2.8-8.5,3c-4.3,1.7-8.3,3.6-13,2.6
		c-4.9-1-9.3-3.8-13.9-5.7L227.6,785.1z"/>
	<path fill="#FFFFFF" d="M279.9,763.2c0,0,17.3,29.8,17.7,30.4c-0.3-0.6-7.8,2.8-8.5,3c-4.3,1.7-8.3,3.6-13,2.6
		c-4.9-1-9.3-3.8-13.9-5.7L279.9,763.2z"/>
	<path fill="#FFFFFF" d="M440,768.4c0,0,17.3,29.8,17.7,30.4c-0.3-0.6-7.8,2.8-8.5,3c-4.3,1.7-8.3,3.6-13,2.6
		c-4.9-1-9.3-3.8-13.9-5.7L440,768.4z"/>
	<path fill="#FFFFFF" d="M505.8,766c0,0,17.3,29.8,17.7,30.4c-0.3-0.6-7.8,2.8-8.5,3c-4.3,1.7-8.3,3.6-13,2.6
		c-4.9-1-9.3-3.8-13.9-5.7L505.8,766z"/>
	<path fill="#FFFFFF" d="M368.9,768.6c0,0,17.3,29.8,17.7,30.4c-0.3-0.6-7.8,2.8-8.5,3c-4.3,1.7-8.3,3.6-13,2.6
		c-4.9-1-9.3-3.8-13.9-5.7L368.9,768.6z"/>
	<line fill="none" stroke="#596E31" stroke-width="3.6097" stroke-miterlimit="10" x1="57" y1="834.9" x2="57.5" y2="900.3"/>
	<polygon fill="#596E31" points="56.8,824.1 68.3,844.1 79.9,864.1 56.8,864.1 33.6,864.1 45.2,844.1 	"/>
	<polygon fill="#596E31" points="57,839.2 68.6,859.2 80.2,879.3 57,879.3 33.9,879.3 45.5,859.2 	"/>
	<polygon fill="#596E31" points="56.8,855 68.3,875 79.9,895 56.8,895 33.6,895 45.2,875 	"/>
	<line fill="none" stroke="#596E31" stroke-width="3.6097" stroke-miterlimit="10" x1="126" y1="836.9" x2="126.5" y2="902.2"/>
	<polygon fill="#596E31" points="125.7,826 137.2,846 148.8,866.1 125.7,866.1 102.6,866.1 114.1,846 	"/>
	<polygon fill="#596E31" points="126,841.2 137.5,861.2 149.1,881.2 126,881.2 102.8,881.2 114.4,861.2 	"/>
	<polygon fill="#596E31" points="125.7,856.9 137.2,876.9 148.8,897 125.7,897 102.6,897 114.1,876.9 	"/>
	<line fill="none" stroke="#596E31" stroke-width="3.6097" stroke-miterlimit="10" x1="192.4" y1="836.9" x2="192.9" y2="902.2"/>
	<polygon fill="#596E31" points="192.1,826 203.7,846 215.2,866.1 192.1,866.1 169,866.1 180.5,846 	"/>
	<polygon fill="#596E31" points="192.4,841.2 203.9,861.2 215.5,881.2 192.4,881.2 169.3,881.2 180.8,861.2 	"/>
	<polygon fill="#596E31" points="192.1,856.9 203.7,876.9 215.2,897 192.1,897 169,897 180.5,876.9 	"/>
	<line fill="none" stroke="#596E31" stroke-width="4.203" stroke-miterlimit="10" x1="325.4" y1="827.5" x2="326" y2="903.6"/>
	<polygon fill="#596E31" points="325.1,814.9 338.6,838.2 352,861.5 325.1,861.5 298.2,861.5 311.6,838.2 	"/>
	<polygon fill="#596E31" points="325.4,832.5 338.9,855.8 352.3,879.1 325.4,879.1 298.5,879.1 312,855.8 	"/>
	<polygon fill="#596E31" points="325.1,850.8 338.6,874.2 352,897.5 325.1,897.5 298.2,897.5 311.6,874.2 	"/>
	<line fill="none" stroke="#596E31" stroke-width="3.6097" stroke-miterlimit="10" x1="267.4" y1="838.8" x2="267.9" y2="904.2"/>
	<polygon fill="#596E31" points="267.1,828 278.7,848 290.3,868 267.1,868 244,868 255.6,848 	"/>
	<polygon fill="#596E31" points="267.4,843.1 279,863.1 290.5,883.1 267.4,883.1 244.3,883.1 255.9,863.1 	"/>
	<polygon fill="#596E31" points="267.1,858.8 278.7,878.9 290.3,898.9 267.1,898.9 244,898.9 255.6,878.9 	"/>
	<line fill="none" stroke="#596E31" stroke-width="4.203" stroke-miterlimit="10" x1="389.9" y1="827.1" x2="390.5" y2="903.2"/>
	<polygon fill="#596E31" points="389.6,814.5 403,837.8 416.5,861.1 389.6,861.1 362.7,861.1 376.1,837.8 	"/>
	<polygon fill="#596E31" points="389.9,832.1 403.4,855.4 416.8,878.7 389.9,878.7 363,878.7 376.4,855.4 	"/>
	<polygon fill="#596E31" points="389.6,850.5 403,873.8 416.5,897.1 389.6,897.1 362.7,897.1 376.1,873.8 	"/>
	<line fill="none" stroke="#596E31" stroke-width="4.203" stroke-miterlimit="10" x1="474" y1="826.6" x2="474.6" y2="902.6"/>
	<polygon fill="#596E31" points="473.7,813.9 487.2,837.2 500.6,860.5 473.7,860.5 446.8,860.5 460.2,837.2 	"/>
	<polygon fill="#596E31" points="474,831.5 487.5,854.8 500.9,878.2 474,878.2 447.1,878.2 460.6,854.8 	"/>
	<polygon fill="#596E31" points="473.7,849.9 487.2,873.2 500.6,896.5 473.7,896.5 446.8,896.5 460.2,873.2 	"/>
	<line fill="none" stroke="#596E31" stroke-width="4.203" stroke-miterlimit="10" x1="542" y1="826.4" x2="542.6" y2="902.4"/>
	<polygon fill="#596E31" points="541.7,813.7 555.2,837 568.6,860.3 541.7,860.3 514.8,860.3 528.2,837 	"/>
	<polygon fill="#596E31" points="542,831.3 555.5,854.7 568.9,878 542,878 515.1,878 528.6,854.7 	"/>
	<polygon fill="#596E31" points="541.7,849.7 555.2,873 568.6,896.3 541.7,896.3 514.8,896.3 528.2,873 	"/>
	<path fill="#FFFFFF" d="M541.9,813.7c0,0,13.5,23.3,13.5,23.3c-5.8,2.2-10.6,5.5-17.1,5c-1.2-0.1-11.8-1.7-12.2-0.9
		c0,0,2.4-4.1,2.4-4.1L541.9,813.7z"/>
	<path fill="#FFFFFF" d="M473.6,813.7c0,0,13.5,23.3,13.5,23.3c-5.8,2.2-10.6,5.5-17.1,5c-1.2-0.1-11.8-1.7-12.2-0.9
		c0,0,2.4-4.1,2.4-4.1L473.6,813.7z"/>
	<path fill="#FFFFFF" d="M389.3,814.6c0,0,13.5,23.3,13.5,23.3c-5.8,2.2-10.6,5.5-17.1,5c-1.2-0.1-11.8-1.7-12.2-0.9
		c0,0,2.4-4.1,2.4-4.1L389.3,814.6z"/>
	<path fill="#FFFFFF" d="M325.2,814.6c0,0,13.5,23.3,13.5,23.3c-5.8,2.2-10.6,5.5-17.1,5c-1.2-0.1-11.8-1.7-12.2-0.9
		c0,0,2.4-4.1,2.4-4.1L325.2,814.6z"/>
	<path fill="#FFFFFF" d="M267.3,828.5c0,0,13.5,23.3,13.5,23.3c-5.8,2.2-10.6,5.5-17.1,5c-1.2-0.1-11.8-1.7-12.2-0.9
		c0,0,2.4-4.1,2.4-4.1L267.3,828.5z"/>
	<path fill="#FFFFFF" d="M192.2,826.4c0,0,13.5,23.3,13.5,23.3c-5.8,2.2-10.6,5.5-17.1,5c-1.2-0.1-11.8-1.7-12.2-0.9
		c0,0,2.4-4.1,2.4-4.1L192.2,826.4z"/>
	<path fill="#FFFFFF" d="M125.9,825.7c0,0,13.5,23.3,13.5,23.3c-5.8,2.2-10.6,5.5-17.1,5c-1.2-0.1-11.8-1.7-12.2-0.9
		c0,0,2.4-4.1,2.4-4.1L125.9,825.7z"/>
	<path fill="#FFFFFF" d="M56.7,824c0,0,13.5,23.3,13.5,23.3c-5.8,2.2-10.6,5.5-17.1,5c-1.2-0.1-11.8-1.7-12.2-0.9
		c0,0,2.4-4.1,2.4-4.1L56.7,824z"/>
	
		<line fill="#689B57" stroke="#596E31" stroke-width="2.7698" stroke-miterlimit="10" x1="507.5" y1="850.6" x2="507.9" y2="900.7"/>
	<polygon fill="#689B57" points="507.3,842.3 516.2,857.6 525,873 507.3,873 489.6,873 498.4,857.6 	"/>
	<polygon fill="#689B57" points="507.5,853.9 516.4,869.2 525.3,884.6 507.5,884.6 489.8,884.6 498.6,869.2 	"/>
	<polygon fill="#689B57" points="507.3,866 516.2,881.3 525,896.7 507.3,896.7 489.6,896.7 498.4,881.3 	"/>
	
		<line fill="#689B57" stroke="#596E31" stroke-width="2.7698" stroke-miterlimit="10" x1="432.4" y1="850.6" x2="432.7" y2="900.7"/>
	<polygon fill="#689B57" points="432.1,842.3 441,857.6 449.9,873 432.1,873 414.4,873 423.3,857.6 	"/>
	<polygon fill="#689B57" points="432.4,853.9 441.2,869.2 450.1,884.6 432.4,884.6 414.6,884.6 423.5,869.2 	"/>
	<polygon fill="#689B57" points="432.1,866 441,881.3 449.9,896.7 432.1,896.7 414.4,896.7 423.3,881.3 	"/>
	<line fill="#689B57" stroke="#596E31" stroke-width="2.7698" stroke-miterlimit="10" x1="297" y1="850.6" x2="297.4" y2="900.7"/>
	<polygon fill="#689B57" points="296.8,842.3 305.7,857.6 314.6,873 296.8,873 279.1,873 288,857.6 	"/>
	<polygon fill="#689B57" points="297,853.9 305.9,869.2 314.8,884.6 297,884.6 279.3,884.6 288.2,869.2 	"/>
	<polygon fill="#689B57" points="296.8,866 305.7,881.3 314.6,896.7 296.8,896.7 279.1,896.7 288,881.3 	"/>
	
		<line fill="#689B57" stroke="#596E31" stroke-width="2.7698" stroke-miterlimit="10" x1="228.2" y1="852.1" x2="228.5" y2="902.2"/>
	<polygon fill="#689B57" points="227.9,843.7 236.8,859.1 245.7,874.5 227.9,874.5 210.2,874.5 219.1,859.1 	"/>
	<polygon fill="#689B57" points="228.2,855.4 237,870.7 245.9,886.1 228.2,886.1 210.4,886.1 219.3,870.7 	"/>
	<polygon fill="#689B57" points="227.9,867.5 236.8,882.8 245.7,898.2 227.9,898.2 210.2,898.2 219.1,882.8 	"/>
	
		<line fill="#689B57" stroke="#596E31" stroke-width="2.7698" stroke-miterlimit="10" x1="158.2" y1="854.1" x2="158.6" y2="904.2"/>
	<polygon fill="#689B57" points="158,845.7 166.9,861.1 175.7,876.5 158,876.5 140.3,876.5 149.1,861.1 	"/>
	<polygon fill="#689B57" points="158.2,857.4 167.1,872.7 175.9,888.1 158.2,888.1 140.5,888.1 149.3,872.7 	"/>
	<polygon fill="#689B57" points="158,869.5 166.9,884.8 175.7,900.2 158,900.2 140.3,900.2 149.1,884.8 	"/>
	<line fill="#689B57" stroke="#596E31" stroke-width="2.7698" stroke-miterlimit="10" x1="86.6" y1="852.3" x2="86.9" y2="902.4"/>
	<polygon fill="#689B57" points="86.3,843.9 95.2,859.3 104.1,874.7 86.3,874.7 68.6,874.7 77.5,859.3 	"/>
	<polygon fill="#689B57" points="86.6,855.6 95.4,870.9 104.3,886.3 86.6,886.3 68.8,886.3 77.7,870.9 	"/>
	<polygon fill="#689B57" points="86.3,867.7 95.2,883 104.1,898.4 86.3,898.4 68.6,898.4 77.5,883 	"/>
	<path fill="#FFFFFF" d="M86.3,843.9c0,0,8.8,15.3,8.9,15.4c-0.1-0.1-7.2,3.5-7.6,3.8c-3.6,1.8-8.3,0.3-12.2-0.2l2.1-3.6L86.3,843.9
		z"/>
	<path fill="#FFFFFF" d="M157.9,845.8c0,0,8.8,15.3,8.9,15.4c-0.1-0.1-7.2,3.5-7.6,3.8c-3.6,1.8-8.3,0.3-12.2-0.2l2.1-3.6
		L157.9,845.8z"/>
	<path fill="#FFFFFF" d="M227.9,843.9c0,0,8.8,15.3,8.9,15.4c-0.1-0.1-7.2,3.5-7.6,3.8c-3.6,1.8-8.3,0.3-12.2-0.2l2.1-3.6
		L227.9,843.9z"/>
	<path fill="#FFFFFF" d="M297,842.6c0,0,8.8,15.3,8.9,15.4c-0.1-0.1-7.2,3.5-7.6,3.8c-3.6,1.8-8.3,0.3-12.2-0.2l2.1-3.6L297,842.6z"
		/>
	<path fill="#FFFFFF" d="M432.2,842.6c0,0,8.8,15.3,8.9,15.4c-0.1-0.1-7.2,3.5-7.6,3.8c-3.6,1.8-8.3,0.3-12.2-0.2l2.1-3.6
		L432.2,842.6z"/>
	<path fill="#FFFFFF" d="M507.4,842.6c0,0,8.8,15.3,8.9,15.4c-0.1-0.1-7.2,3.5-7.6,3.8c-3.6,1.8-8.3,0.3-12.2-0.2l2.1-3.6
		L507.4,842.6z"/>
</g>
</svg>
