<?xml version="1.0" encoding="utf-8"?>
<!-- Generator: Adobe Illustrator 21.0.0, SVG Export Plug-In . SVG Version: 6.00 Build 0)  -->
<svg version="1.1" xmlns="http://www.w3.org/2000/svg" xmlns:xlink="http://www.w3.org/1999/xlink" x="0px" y="0px" width="600px"
	 height="900px" viewBox="0 0 600 900" enable-background="new 0 0 600 900" xml:space="preserve">
<pattern  x="-1688.2" width="149.3" height="186.2" patternUnits="userSpaceOnUse" id="santa_hats" viewBox="47.2 -186.2 149.3 186.2" overflow="visible">
	<g>
		<rect x="47.2" y="-186.2" fill="none" width="149.3" height="186.2"/>
		<g>
			<rect x="47.2" y="-186.2" fill="#8BC644" width="149.3" height="186.2"/>
			<g>
				<polygon fill="#E31E26" points="163.1,-72.3 182.4,-53.2 201.7,-34.1 175.5,-26.9 149.3,-19.7 156.2,-46 				"/>
				
					<ellipse transform="matrix(0.2641 -0.9645 0.9645 0.2641 127.4584 134.927)" fill="#FFFFFF" cx="152.1" cy="-16.1" rx="7.3" ry="7.3"/>
				
					<ellipse transform="matrix(0.2641 -0.9645 0.9645 0.2641 131.3123 137.8677)" fill="#FFFFFF" cx="156" cy="-17.1" rx="7.3" ry="7.3"/>
				
					<ellipse transform="matrix(0.2641 -0.9645 0.9645 0.2641 134.5472 140.3359)" fill="#FFFFFF" cx="159.2" cy="-18" rx="7.3" ry="7.3"/>
				
					<ellipse transform="matrix(0.2641 -0.9645 0.9645 0.2641 138.4012 143.2766)" fill="#FFFFFF" cx="163.1" cy="-19.1" rx="7.3" ry="7.3"/>
				
					<ellipse transform="matrix(0.2641 -0.9645 0.9645 0.2641 141.636 145.7449)" fill="#FFFFFF" cx="166.3" cy="-19.9" rx="7.3" ry="7.3"/>
				
					<ellipse transform="matrix(0.2641 -0.9645 0.9645 0.2641 145.49 148.6855)" fill="#FFFFFF" cx="170.2" cy="-21" rx="7.3" ry="7.3"/>
				
					<ellipse transform="matrix(0.2641 -0.9645 0.9645 0.2641 150.1148 152.2144)" fill="#FFFFFF" cx="174.8" cy="-22.3" rx="7.3" ry="7.3"/>
				
					<ellipse transform="matrix(0.2641 -0.9645 0.9645 0.2641 152.5788 154.0945)" fill="#FFFFFF" cx="177.3" cy="-22.9" rx="7.3" ry="7.3"/>
				
					<ellipse transform="matrix(0.2641 -0.9645 0.9645 0.2641 157.2036 157.6233)" fill="#FFFFFF" cx="181.9" cy="-24.2" rx="7.3" ry="7.3"/>
				
					<ellipse transform="matrix(0.2641 -0.9645 0.9645 0.2641 161.1647 160.6458)" fill="#FFFFFF" cx="185.9" cy="-25.3" rx="7.3" ry="7.3"/>
				
					<ellipse transform="matrix(0.2641 -0.9645 0.9645 0.2641 164.2924 163.0322)" fill="#FFFFFF" cx="189" cy="-26.1" rx="7.3" ry="7.3"/>
				
					<ellipse transform="matrix(0.2641 -0.9645 0.9645 0.2641 168.2536 166.0547)" fill="#FFFFFF" cx="192.9" cy="-27.2" rx="7.3" ry="7.3"/>
				
					<ellipse transform="matrix(0.2641 -0.9645 0.9645 0.2641 172.6824 169.434)" fill="#FFFFFF" cx="197.4" cy="-28.4" rx="7.3" ry="7.3"/>
				
					<ellipse transform="matrix(0.2641 -0.9645 0.9645 0.2641 176.006 171.97)" fill="#FFFFFF" cx="200.7" cy="-29.3" rx="7.3" ry="7.3"/>
				
					<ellipse transform="matrix(0.2641 -0.9645 0.9645 0.2641 185.8885 102.4673)" fill="#FFFFFF" cx="160.1" cy="-70.6" rx="4" ry="4"/>
				
					<ellipse transform="matrix(0.2641 -0.9645 0.9645 0.2641 189.9749 102.8702)" fill="#FFFFFF" cx="162.4" cy="-73.1" rx="4" ry="4"/>
				
					<ellipse transform="matrix(0.2641 -0.9645 0.9645 0.2641 192.2509 107.8788)" fill="#FFFFFF" cx="166.8" cy="-72" rx="4" ry="4"/>
				
					<ellipse transform="matrix(0.2641 -0.9645 0.9645 0.2641 187.4365 109.7462)" fill="#FFFFFF" cx="165.6" cy="-68" rx="4" ry="4"/>
				
					<ellipse transform="matrix(0.2641 -0.9645 0.9645 0.2641 183.5825 106.8055)" fill="#FFFFFF" cx="161.8" cy="-66.9" rx="4" ry="4"/>
			</g>
			<g>
				<polygon fill="#E31E26" points="112.3,-100.3 113.9,-73.2 115.4,-46 91.1,-58.3 66.9,-70.5 89.6,-85.4 				"/>
				
					<ellipse transform="matrix(0.8929 -0.4502 0.4502 0.8929 36.7731 22.9021)" fill="#FFFFFF" cx="66.5" cy="-65.9" rx="7.3" ry="7.3"/>
				
					<ellipse transform="matrix(0.8929 -0.4502 0.4502 0.8929 36.3453 24.7009)" fill="#FFFFFF" cx="70.1" cy="-64.1" rx="7.3" ry="7.3"/>
				
					<ellipse transform="matrix(0.8929 -0.4502 0.4502 0.8929 35.9862 26.2107)" fill="#FFFFFF" cx="73.1" cy="-62.6" rx="7.3" ry="7.3"/>
				
					<ellipse transform="matrix(0.8929 -0.4502 0.4502 0.8929 35.5584 28.0096)" fill="#FFFFFF" cx="76.7" cy="-60.8" rx="7.3" ry="7.3"/>
				
					<ellipse transform="matrix(0.8929 -0.4502 0.4502 0.8929 35.1993 29.5194)" fill="#FFFFFF" cx="79.7" cy="-59.2" rx="7.3" ry="7.3"/>
				
					<ellipse transform="matrix(0.8929 -0.4502 0.4502 0.8929 34.7716 31.3182)" fill="#FFFFFF" cx="83.2" cy="-57.4" rx="7.3" ry="7.3"/>
				
					<ellipse transform="matrix(0.8929 -0.4502 0.4502 0.8929 34.2582 33.4768)" fill="#FFFFFF" cx="87.5" cy="-55.3" rx="7.3" ry="7.3"/>
				
					<ellipse transform="matrix(0.8929 -0.4502 0.4502 0.8929 33.9847 34.6269)" fill="#FFFFFF" cx="89.8" cy="-54.1" rx="7.3" ry="7.3"/>
				
					<ellipse transform="matrix(0.8929 -0.4502 0.4502 0.8929 33.4713 36.7854)" fill="#FFFFFF" cx="94.1" cy="-52" rx="7.3" ry="7.3"/>
				
					<ellipse transform="matrix(0.8929 -0.4502 0.4502 0.8929 33.0317 38.6343)" fill="#FFFFFF" cx="97.7" cy="-50.1" rx="7.3" ry="7.3"/>
				
					<ellipse transform="matrix(0.8929 -0.4502 0.4502 0.8929 32.6845 40.0941)" fill="#FFFFFF" cx="100.6" cy="-48.7" rx="7.3" ry="7.3"/>
				
					<ellipse transform="matrix(0.8929 -0.4502 0.4502 0.8929 32.2448 41.9429)" fill="#FFFFFF" cx="104.3" cy="-46.8" rx="7.3" ry="7.3"/>
				
					<ellipse transform="matrix(0.8929 -0.4502 0.4502 0.8929 31.7532 44.0101)" fill="#FFFFFF" cx="108.4" cy="-44.8" rx="7.3" ry="7.3"/>
				
					<ellipse transform="matrix(0.8929 -0.4502 0.4502 0.8929 31.3843 45.5613)" fill="#FFFFFF" cx="111.5" cy="-43.2" rx="7.3" ry="7.3"/>
				<ellipse transform="matrix(0.8929 -0.4502 0.4502 0.8929 57.1388 38.2374)" fill="#FFFFFF" cx="109" cy="-101" rx="4" ry="4"/>
				
					<ellipse transform="matrix(0.8929 -0.4502 0.4502 0.8929 57.6315 39.724)" fill="#FFFFFF" cx="112.3" cy="-101.3" rx="4" ry="4"/>
				
					<ellipse transform="matrix(0.8929 -0.4502 0.4502 0.8929 56.2385 41.2933)" fill="#FFFFFF" cx="114.9" cy="-97.6" rx="4" ry="4"/>
				
					<ellipse transform="matrix(0.8929 -0.4502 0.4502 0.8929 54.8418 39.9046)" fill="#FFFFFF" cx="111.3" cy="-95.3" rx="4" ry="4"/>
				
					<ellipse transform="matrix(0.8929 -0.4502 0.4502 0.8929 55.2696 38.1058)" fill="#FFFFFF" cx="107.8" cy="-97.1" rx="4" ry="4"/>
			</g>
			<g>
				<polygon fill="#E31E26" points="177.4,-165.9 182.1,-139.1 186.7,-112.3 161.2,-121.7 135.7,-131 156.6,-148.5 				"/>
				
					<ellipse transform="matrix(0.9391 -0.3437 0.3437 0.9391 51.7234 39.018)" fill="#FFFFFF" cx="135.9" cy="-126.4" rx="7.3" ry="7.3"/>
				
					<ellipse transform="matrix(0.9391 -0.3437 0.3437 0.9391 51.4799 40.3915)" fill="#FFFFFF" cx="139.7" cy="-125" rx="7.3" ry="7.3"/>
				
					<ellipse transform="matrix(0.9391 -0.3437 0.3437 0.9391 51.2756 41.5443)" fill="#FFFFFF" cx="142.8" cy="-123.9" rx="7.3" ry="7.3"/>
				
					<ellipse transform="matrix(0.9391 -0.3437 0.3437 0.9391 51.0321 42.9178)" fill="#FFFFFF" cx="146.6" cy="-122.5" rx="7.3" ry="7.3"/>
				
					<ellipse transform="matrix(0.9391 -0.3437 0.3437 0.9391 50.8277 44.0706)" fill="#FFFFFF" cx="149.7" cy="-121.3" rx="7.3" ry="7.3"/>
				
					<ellipse transform="matrix(0.9391 -0.3437 0.3437 0.9391 50.5843 45.4441)" fill="#FFFFFF" cx="153.5" cy="-120" rx="7.3" ry="7.3"/>
				
					<ellipse transform="matrix(0.9391 -0.3437 0.3437 0.9391 50.2921 47.0923)" fill="#FFFFFF" cx="158" cy="-118.3" rx="7.3" ry="7.3"/>
				
					<ellipse transform="matrix(0.9391 -0.3437 0.3437 0.9391 50.1364 47.9704)" fill="#FFFFFF" cx="160.4" cy="-117.4" rx="7.3" ry="7.3"/>
				
					<ellipse transform="matrix(0.9391 -0.3437 0.3437 0.9391 49.8442 49.6186)" fill="#FFFFFF" cx="164.9" cy="-115.8" rx="7.3" ry="7.3"/>
				
					<ellipse transform="matrix(0.9391 -0.3437 0.3437 0.9391 49.594 51.0303)" fill="#FFFFFF" cx="168.7" cy="-114.4" rx="7.3" ry="7.3"/>
				
					<ellipse transform="matrix(0.9391 -0.3437 0.3437 0.9391 49.3964 52.145)" fill="#FFFFFF" cx="171.8" cy="-113.3" rx="7.3" ry="7.3"/>
				
					<ellipse transform="matrix(0.9391 -0.3437 0.3437 0.9391 49.1462 53.5566)" fill="#FFFFFF" cx="175.6" cy="-111.8" rx="7.3" ry="7.3"/>
				
					<ellipse transform="matrix(0.9391 -0.3437 0.3437 0.9391 48.8664 55.135)" fill="#FFFFFF" cx="179.9" cy="-110.3" rx="7.3" ry="7.3"/>
				
					<ellipse transform="matrix(0.9391 -0.3437 0.3437 0.9391 48.6564 56.3195)" fill="#FFFFFF" cx="183.2" cy="-109.1" rx="7.3" ry="7.3"/>
				
					<ellipse transform="matrix(0.9391 -0.3437 0.3437 0.9391 67.7328 49.6765)" fill="#FFFFFF" cx="174" cy="-166.2" rx="4" ry="4"/>
				
					<ellipse transform="matrix(0.9391 -0.3437 0.3437 0.9391 68.169 50.7746)" fill="#FFFFFF" cx="177.3" cy="-166.9" rx="4" ry="4"/>
				
					<ellipse transform="matrix(0.9391 -0.3437 0.3437 0.9391 67.1885 52.0174)" fill="#FFFFFF" cx="180.3" cy="-163.5" rx="4" ry="4"/>
				
					<ellipse transform="matrix(0.9391 -0.3437 0.3437 0.9391 66.0758 51.0327)" fill="#FFFFFF" cx="177" cy="-160.9" rx="4" ry="4"/>
				
					<ellipse transform="matrix(0.9391 -0.3437 0.3437 0.9391 66.3193 49.6592)" fill="#FFFFFF" cx="173.2" cy="-162.2" rx="4" ry="4"/>
			</g>
			<g>
				<polygon fill="#E31E26" points="67.9,-176.8 89.8,-160.6 111.6,-144.5 86.7,-133.6 61.8,-122.8 64.9,-149.8 				"/>
				
					<ellipse transform="matrix(0.4005 -0.9163 0.9163 0.4005 148.6379 -11.9276)" fill="#FFFFFF" cx="65.2" cy="-119.5" rx="7.3" ry="7.3"/>
				
					<ellipse transform="matrix(0.4005 -0.9163 0.9163 0.4005 152.2993 -9.5319)" fill="#FFFFFF" cx="68.9" cy="-121.1" rx="7.3" ry="7.3"/>
				
					<ellipse transform="matrix(0.4005 -0.9163 0.9163 0.4005 155.3725 -7.5211)" fill="#FFFFFF" cx="71.9" cy="-122.5" rx="7.3" ry="7.3"/>
				
					<ellipse transform="matrix(0.4005 -0.9163 0.9163 0.4005 159.034 -5.1255)" fill="#FFFFFF" cx="75.6" cy="-124.1" rx="7.3" ry="7.3"/>
				
					<ellipse transform="matrix(0.4005 -0.9163 0.9163 0.4005 162.1071 -3.1147)" fill="#FFFFFF" cx="78.7" cy="-125.4" rx="7.3" ry="7.3"/>
				
					<ellipse transform="matrix(0.4005 -0.9163 0.9163 0.4005 165.7686 -0.719)" fill="#FFFFFF" cx="82.3" cy="-127" rx="7.3" ry="7.3"/>
				
					<ellipse transform="matrix(0.4005 -0.9163 0.9163 0.4005 170.1623 2.1558)" fill="#FFFFFF" cx="86.7" cy="-129" rx="7.3" ry="7.3"/>
				
					<ellipse transform="matrix(0.4005 -0.9163 0.9163 0.4005 172.5032 3.6874)" fill="#FFFFFF" cx="89.1" cy="-130" rx="7.3" ry="7.3"/>
				
					<ellipse transform="matrix(0.4005 -0.9163 0.9163 0.4005 176.8969 6.5622)" fill="#FFFFFF" cx="93.5" cy="-131.9" rx="7.3" ry="7.3"/>
				
					<ellipse transform="matrix(0.4005 -0.9163 0.9163 0.4005 180.6602 9.0245)" fill="#FFFFFF" cx="97.2" cy="-133.5" rx="7.3" ry="7.3"/>
				
					<ellipse transform="matrix(0.4005 -0.9163 0.9163 0.4005 183.6315 10.9687)" fill="#FFFFFF" cx="100.2" cy="-134.8" rx="7.3" ry="7.3"/>
				
					<ellipse transform="matrix(0.4005 -0.9163 0.9163 0.4005 187.3948 13.4309)" fill="#FFFFFF" cx="104" cy="-136.5" rx="7.3" ry="7.3"/>
				
					<ellipse transform="matrix(0.4005 -0.9163 0.9163 0.4005 191.6024 16.1839)" fill="#FFFFFF" cx="108.2" cy="-138.3" rx="7.3" ry="7.3"/>
				
					<ellipse transform="matrix(0.4005 -0.9163 0.9163 0.4005 194.7599 18.2499)" fill="#FFFFFF" cx="111.3" cy="-139.7" rx="7.3" ry="7.3"/>
				
					<ellipse transform="matrix(0.4005 -0.9163 0.9163 0.4005 199.1189 -44.9631)" fill="#FFFFFF" cx="65.2" cy="-174.6" rx="4" ry="4"/>
				
					<ellipse transform="matrix(0.4005 -0.9163 0.9163 0.4005 202.8238 -44.8672)" fill="#FFFFFF" cx="67.1" cy="-177.4" rx="4" ry="4"/>
				
					<ellipse transform="matrix(0.4005 -0.9163 0.9163 0.4005 205.1997 -40.5069)" fill="#FFFFFF" cx="71.6" cy="-177.1" rx="4" ry="4"/>
				
					<ellipse transform="matrix(0.4005 -0.9163 0.9163 0.4005 200.9876 -38.5115)" fill="#FFFFFF" cx="71.1" cy="-172.8" rx="4" ry="4"/>
				
					<ellipse transform="matrix(0.4005 -0.9163 0.9163 0.4005 197.3261 -40.9072)" fill="#FFFFFF" cx="67.4" cy="-171.2" rx="4" ry="4"/>
			</g>
		</g>
		<g>
			<g>
				<polygon fill="#E31E26" points="13.8,-72.3 33.1,-53.2 52.4,-34.1 26.2,-26.9 0,-19.7 6.9,-46 				"/>
				
					<ellipse transform="matrix(0.2641 -0.9645 0.9645 0.2641 58.3941 22.0757)" fill="#FFFFFF" cx="43.7" cy="-27.2" rx="7.3" ry="7.3"/>
				
					<ellipse transform="matrix(0.2641 -0.9645 0.9645 0.2641 62.823 25.455)" fill="#FFFFFF" cx="48.1" cy="-28.4" rx="7.3" ry="7.3"/>
				
					<ellipse transform="matrix(0.2641 -0.9645 0.9645 0.2641 66.1465 27.991)" fill="#FFFFFF" cx="51.4" cy="-29.3" rx="7.3" ry="7.3"/>
			</g>
		</g>
	</g>
</pattern>
<g id="Layer_2">
</g>
<g id="Layer_1">
	<pattern  id="SVGID_1_" xlink:href="#santa_hats" patternTransform="matrix(2.4317 0 0 2.6283 8601.1582 11230.8467)">
	</pattern>
	<rect x="-23.8" y="-1266.1" fill="url(#SVGID_1_)" width="628.8" height="3432.2"/>
</g>
</svg>
